<svg version="1.0" xmlns="http://www.w3.org/2000/svg" width="648.000000pt" height="174.000000pt" viewBox="0 0 648.000000 174.000000" preserveAspectRatio="xMidYMid meet">
  <g transform="translate(0.000000,174.000000) scale(0.100000,-0.100000)" fill="#000000" stroke="none">
    <path d="M5055 1239 c-4 -5 4 -25 16 -44 18 -26 34 -36 63 -41 67 -11 108 -34 165 -93 45 -46 60 -69 74 -120 18 -61 17 -109 -2 -150 -5 -9 -16 -33 -26 -54 -25 -51 -75 -100 -127 -126 -59 -28 -192 -30 -241 -3 -92 50 -146 119 -167 214 -20 90 12 182 91 256 30 28 31 30 18 66 -7 20 -19 36 -27 36 -17 0 -87 -73 -110 -115 -9 -16 -26 -57 -38 -89 l-20 -60 -389 0 -388 -1 -20 38 c-24 47 -59 71 -90 63 -14 -3 -32 1 -43 9 -10 8 -32 15 -48 15 -35 0 -104 -53 -121 -94 l-13 -29 -445 -1 -446 -1 -3 65 -3 65 -40 0 -40 0 0 -175 0 -175 40 0 40 0 0 65 1 65 451 3 452 2 3 -21 c2 -12 25 -40 52 -63 45 -38 52 -41 110 -41 71 0 106 21 141 83 l21 37 389 3 390 2 19 -62 c11 -35 26 -74 34 -88 22 -35 104 -120 117 -120 6 0 16 -5 22 -11 22 -22 119 -48 178 -49 140 0 279 96 337 235 10 22 19 51 20 65 3 24 7 25 76 28 69 3 72 4 72 27 0 36 14 37 59 5 39 -29 46 -30 141 -30 99 0 100 0 121 -30 13 -16 41 -37 64 -46 40 -15 44 -14 79 4 53 29 76 63 76 114 -1 63 -41 108 -101 115 -40 5 -49 1 -94 -34 l-50 -39 -220 1 -220 2 -3 29 c-4 37 -39 114 -52 114 -6 0 -10 7 -10 16 0 20 -88 105 -131 125 -91 43 -190 61 -204 38z m-1267 -377 c3 -9 -3 -13 -19 -10 -12 1 -24 9 -27 16 -3 9 3 13 19 10 12 -1 24 -9 27 -16z"/>
    <path d="M600 1076 c-58 -14 -104 -48 -136 -97 -20 -32 -24 -51 -24 -113 0 -53 4 -77 15 -86 8 -7 15 -17 15 -23 0 -20 74 -76 121 -91 62 -21 82 -20 130 4 34 18 38 23 29 40 -7 13 -7 21 0 25 6 3 13 -1 16 -9 13 -35 41 -11 74 62 l19 42 644 0 c450 0 646 3 654 11 8 8 13 8 17 0 5 -7 56 -11 143 -11 l136 0 -6 -59 c-8 -72 6 -94 50 -82 l28 7 0 173 c0 168 0 172 -22 177 -49 13 -58 3 -58 -65 l0 -63 -795 0 -795 0 -15 34 c-38 84 -72 109 -180 132 -8 2 -35 -2 -60 -8z m129 -104 c64 -52 66 -134 4 -196 -32 -31 -42 -36 -84 -36 -39 0 -55 6 -82 29 -47 42 -63 95 -43 141 44 99 128 125 205 62z"/>
  </g>
</svg>
