<?xml version="1.0" encoding="UTF-8"?>
<svg xmlns="http://www.w3.org/2000/svg" xmlns:xlink="http://www.w3.org/1999/xlink" width="154px" height="32px" viewBox="0 0 153 32" version="1.1">
<g id="surface1">
<path style=" stroke:none;fill-rule:nonzero;fill:rgb(0%,0%,0%);fill-opacity:1;" d="M 121.890625 6.511719 C 121.890625 7.488281 123.164062 8.667969 124.542969 8.921875 C 126.480469 9.28125 128.878906 11.28125 129.589844 13.179688 C 131.476562 18.207031 127.90625 23.28125 122.449219 23.179688 C 116.6875 23.128906 113.425781 16.257812 116.992188 11.539062 C 118.320312 9.792969 118.472656 8.207031 117.300781 8.207031 C 116.585938 8.207031 113.730469 12.769531 113.730469 13.949219 C 113.730469 14.820312 113.015625 14.871094 103.632812 14.871094 L 93.484375 14.871094 L 92.921875 13.589844 C 92.617188 12.871094 92.15625 12.308594 91.953125 12.257812 C 91.699219 12.257812 91.035156 12.152344 90.421875 12.101562 C 89.761719 12 89.097656 11.847656 88.945312 11.640625 C 88.382812 11.128906 85.78125 12.769531 85.425781 13.847656 C 85.117188 14.820312 84.660156 14.871094 73.644531 14.871094 L 62.21875 14.871094 L 62.21875 13.078125 C 62.21875 11.640625 62.015625 11.28125 61.199219 11.28125 C 60.230469 11.28125 60.179688 11.640625 60.179688 15.898438 C 60.179688 20.152344 60.230469 20.511719 61.199219 20.511719 C 62.015625 20.511719 62.21875 20.152344 62.21875 18.71875 L 62.21875 16.921875 L 73.644531 16.921875 C 84.355469 16.921875 85.117188 16.972656 85.425781 17.898438 C 85.578125 18.410156 86.496094 19.230469 87.464844 19.792969 C 89.097656 20.667969 89.300781 20.667969 90.984375 19.898438 C 91.953125 19.4375 92.871094 18.5625 93.074219 18 C 93.382812 16.972656 93.738281 16.921875 103.480469 16.921875 L 113.628906 16.921875 L 113.933594 18.5625 C 114.34375 20.769531 116.382812 23.28125 118.472656 24.308594 C 120.664062 25.332031 124.390625 25.382812 126.683594 24.410156 C 128.722656 23.539062 131.375 20.410156 131.785156 18.410156 C 132.039062 17.128906 132.292969 16.921875 133.875 16.921875 C 134.84375 16.921875 135.660156 16.667969 135.660156 16.410156 C 135.660156 16.101562 136.117188 15.898438 136.679688 15.898438 C 137.242188 15.898438 137.699219 16.101562 137.699219 16.410156 C 137.699219 16.71875 139.027344 16.921875 140.65625 16.921875 C 143.003906 16.921875 143.71875 17.128906 144.226562 17.949219 C 145.042969 19.230469 147.441406 19.28125 148.5625 18.050781 C 149.683594 16.820312 149.632812 14.71875 148.511719 13.691406 C 147.238281 12.511719 145.757812 12.617188 144.433594 13.847656 C 143.515625 14.71875 142.648438 14.871094 137.800781 14.871094 L 132.292969 14.871094 L 131.632812 13.078125 C 131.273438 12.101562 130.765625 11.28125 130.507812 11.28125 C 130.253906 11.28125 130.050781 10.921875 130.050781 10.5625 C 130.050781 9.332031 126.835938 7.230469 124.285156 6.71875 C 122.960938 6.460938 121.890625 6.410156 121.890625 6.511719 Z M 91.238281 14.820312 C 92.617188 15.898438 92.410156 16.617188 90.320312 17.640625 C 89.046875 18.308594 88.789062 18.308594 87.414062 17.179688 C 85.933594 16 85.933594 16 86.902344 14.921875 C 88.078125 13.589844 89.605469 13.539062 91.238281 14.820312 Z M 91.238281 14.820312 "/>
<path style=" stroke:none;fill-rule:nonzero;fill:rgb(0%,0%,0%);fill-opacity:1;" d="M 7.34375 11.027344 C 5.203125 11.898438 4.078125 13.640625 4.078125 15.949219 C 4.078125 18.410156 6.070312 20.871094 8.414062 21.332031 C 10.402344 21.691406 12.34375 20.820312 11.933594 19.742188 C 11.730469 19.332031 11.882812 18.972656 12.1875 18.972656 C 12.496094 18.972656 12.75 19.230469 12.75 19.539062 C 12.75 20.410156 13.769531 19.488281 14.28125 18.152344 L 14.738281 16.972656 L 31.46875 16.820312 C 40.648438 16.71875 49.726562 16.71875 51.664062 16.820312 L 55.078125 16.972656 L 55.078125 18.71875 C 55.078125 20.152344 55.285156 20.511719 56.101562 20.511719 C 57.070312 20.511719 57.121094 20.152344 57.121094 15.898438 C 57.121094 11.640625 57.070312 11.28125 56.101562 11.28125 C 55.285156 11.28125 55.078125 11.640625 55.078125 13.078125 L 55.078125 14.871094 L 14.839844 14.871094 L 14.023438 13.332031 C 12.75 10.871094 9.894531 9.898438 7.34375 11.027344 Z M 11.425781 13.382812 C 12.289062 14.050781 12.75 14.921875 12.75 15.898438 C 12.75 17.488281 10.761719 19.488281 9.128906 19.488281 C 7.699219 19.488281 6.121094 17.640625 6.121094 15.949219 C 6.121094 14.410156 8.058594 12.308594 9.433594 12.308594 C 9.792969 12.308594 10.660156 12.769531 11.425781 13.382812 Z M 11.425781 13.382812 "/>
</g>
</svg>
