<?xml version="1.0" encoding="UTF-8"?>
<svg xmlns="http://www.w3.org/2000/svg" xmlns:xlink="http://www.w3.org/1999/xlink" width="700px" height="23px" viewBox="0 0 701 23" version="1.1">
<g id="surface1">
<path style=" stroke:none;fill-rule:nonzero;fill:rgb(0%,0%,0%);fill-opacity:1;" d="M 355.898438 3.695312 C 358.003906 5.226562 359.230469 6.78125 359.808594 9.34375 C 359.898438 9.914062 359.984375 10.484375 360.078125 11.074219 C 361.339844 11.074219 362.605469 11.074219 363.90625 11.074219 C 364.046875 10.511719 364.1875 9.949219 364.332031 9.371094 C 364.996094 8.410156 364.996094 8.410156 366.035156 7.667969 C 368.167969 7.363281 368.167969 7.363281 369.441406 7.667969 C 370.71875 8.730469 370.71875 8.730469 371.566406 9.796875 C 371.359375 10.429688 371.359375 10.429688 371.144531 11.074219 C 371.144531 10.792969 371.144531 10.511719 371.144531 10.222656 C 370.863281 10.222656 370.582031 10.222656 370.292969 10.222656 C 370.117188 10.011719 369.941406 9.800781 369.757812 9.582031 C 369.011719 8.828125 369.011719 8.828125 367.738281 8.757812 C 366.449219 8.832031 366.449219 8.832031 365.636719 9.636719 C 365.027344 10.996094 365.210938 11.789062 365.609375 13.203125 C 366.441406 14.230469 366.441406 14.230469 368.003906 14.109375 C 368.476562 14.089844 368.953125 14.074219 369.441406 14.054688 C 369.441406 14.476562 369.441406 14.898438 369.441406 15.332031 C 366.371094 15.59375 366.371094 15.59375 364.757812 14.347656 C 363.90625 13.203125 363.90625 13.203125 363.90625 11.925781 C 362.644531 11.925781 361.378906 11.925781 360.078125 11.925781 C 359.988281 12.496094 359.902344 13.066406 359.808594 13.65625 C 359.210938 16.351562 357.761719 17.960938 355.554688 19.539062 C 353.21875 20.644531 350.585938 20.917969 348.09375 20.167969 C 345.488281 18.996094 343.757812 17.140625 342.464844 14.613281 C 342.199219 13.628906 342.199219 13.628906 342.199219 11.925781 C 341.21875 11.925781 340.234375 11.925781 339.222656 11.925781 C 339.222656 11.644531 339.222656 11.363281 339.222656 11.074219 C 340.203125 11.074219 341.1875 11.074219 342.199219 11.074219 C 342.234375 10.636719 342.269531 10.195312 342.308594 9.742188 C 342.878906 6.777344 344.539062 5.132812 346.882812 3.40625 C 349.648438 1.792969 353.195312 2.132812 355.898438 3.695312 Z M 344.972656 6.066406 C 343.355469 7.945312 342.929688 9.902344 343.023438 12.351562 C 343.355469 14.683594 344.359375 16.257812 346.03125 17.890625 C 347.851562 19.117188 349.789062 19.707031 351.988281 19.59375 C 354.4375 19.089844 356.25 18.183594 357.789062 16.183594 C 359.136719 13.839844 359.324219 11.578125 358.800781 8.945312 C 357.921875 6.914062 356.835938 5.523438 355.023438 4.257812 C 351.195312 3.035156 348.039062 3.203125 344.972656 6.066406 Z M 344.972656 6.066406 "/>
<path style=" stroke:none;fill-rule:nonzero;fill:rgb(0%,0%,0%);fill-opacity:1;" d="M 353.265625 7.242188 C 354.621094 8.269531 355.261719 8.988281 355.820312 10.59375 C 355.820312 12.355469 355.429688 13.390625 354.542969 14.90625 C 353.09375 15.964844 352.265625 16.183594 350.472656 16.183594 C 348.738281 15.679688 348.023438 15.007812 346.882812 13.628906 C 346.273438 12.410156 346.324219 11.578125 346.457031 10.222656 C 347.195312 8.796875 347.773438 7.90625 349.144531 7.054688 C 350.6875 6.730469 351.742188 6.832031 353.265625 7.242188 Z M 353.265625 7.242188 "/>
<path style=" stroke:none;fill-rule:nonzero;fill:rgb(0%,0%,0%);fill-opacity:1;" d="M 251.542969 7.667969 C 252.984375 8.578125 253.554688 9.019531 254.097656 10.648438 C 266.949219 10.859375 266.949219 10.859375 280.058594 11.074219 C 279.917969 11.355469 279.777344 11.636719 279.632812 11.925781 C 279.324219 11.921875 279.011719 11.914062 278.691406 11.910156 C 275.761719 11.859375 272.832031 11.820312 269.898438 11.792969 C 268.394531 11.78125 266.886719 11.761719 265.378906 11.734375 C 263.648438 11.699219 261.914062 11.6875 260.179688 11.675781 C 259.640625 11.664062 259.101562 11.648438 258.542969 11.636719 C 257.15625 11.636719 255.882812 11.652344 254.523438 11.925781 C 253.347656 13.085938 253.347656 13.085938 252.820312 14.480469 C 251.230469 15.542969 250.449219 15.527344 248.5625 15.332031 C 247.339844 14.667969 247.339844 14.667969 246.433594 13.628906 C 245.945312 11.949219 245.824219 11.0625 246.542969 9.449219 C 248.035156 7.582031 249.242188 7.429688 251.542969 7.667969 Z M 247.285156 10.222656 C 247.027344 11.78125 247.097656 12.480469 247.953125 13.816406 C 249 14.625 249 14.625 250.53125 14.453125 C 252.078125 14.195312 252.078125 14.195312 252.820312 12.777344 C 253.019531 11.222656 253.019531 10.503906 252.101562 9.210938 C 251.164062 8.453125 251.164062 8.453125 250.054688 8.304688 C 248.617188 8.59375 248.128906 9.035156 247.285156 10.222656 Z M 247.285156 10.222656 "/>
<path style=" stroke:none;fill-rule:nonzero;fill:rgb(0%,0%,0%);fill-opacity:1;" d="M 288.890625 7.507812 C 290.425781 7.519531 290.675781 7.648438 291.976562 8.652344 C 292.828125 9.796875 292.828125 9.796875 292.828125 11.074219 C 297.882812 11.074219 302.941406 11.074219 308.152344 11.074219 C 308.359375 11.496094 308.359375 11.496094 308.578125 11.925781 C 303.378906 11.925781 298.183594 11.925781 292.828125 11.925781 C 292.6875 12.628906 292.546875 13.332031 292.402344 14.054688 C 291.34375 15.285156 290.65625 15.339844 289.023438 15.546875 C 287.605469 15.484375 287.257812 15.308594 286.019531 14.453125 C 284.96875 12.910156 284.925781 12.054688 285.167969 10.222656 C 285.449219 9.941406 285.730469 9.660156 286.019531 9.371094 C 286.066406 9.636719 286.113281 9.902344 286.160156 10.179688 C 286.226562 10.527344 286.292969 10.875 286.363281 11.234375 C 286.429688 11.578125 286.492188 11.925781 286.558594 12.28125 C 286.816406 13.355469 286.816406 13.355469 288.144531 14.054688 C 289.457031 14.019531 289.457031 14.019531 290.699219 13.628906 C 291.6875 12.425781 291.6875 12.425781 291.472656 11.046875 C 291.238281 9.667969 291.238281 9.667969 289.847656 8.945312 C 288.300781 9.078125 288.300781 9.078125 286.871094 9.371094 C 286.871094 7.484375 286.957031 7.699219 288.890625 7.507812 Z M 288.890625 7.507812 "/>
<path style=" stroke:none;fill-rule:nonzero;fill:rgb(0%,0%,0%);fill-opacity:1;" d="M 336.242188 7.667969 C 337.476562 8.511719 337.886719 9.257812 338.554688 10.59375 C 338.867188 12.324219 338.472656 13.035156 337.519531 14.480469 C 335.957031 15.523438 334.652344 15.691406 332.835938 15.332031 C 331.691406 14.40625 330.941406 13.667969 330.28125 12.351562 C 319.75 12.140625 319.75 12.140625 309 11.925781 C 309 11.644531 309 11.363281 309 11.074219 C 309.394531 11.074219 309.394531 11.074219 309.796875 11.074219 C 312.53125 11.074219 315.265625 11.058594 318 11.03125 C 319.019531 11.023438 320.042969 11.023438 321.0625 11.023438 C 322.527344 11.023438 323.996094 11.007812 325.460938 10.992188 C 325.917969 10.996094 326.375 11 326.84375 11.003906 C 328.046875 10.980469 329.117188 10.9375 330.28125 10.648438 C 331.417969 9.449219 331.417969 9.449219 331.984375 8.09375 C 333.347656 7.410156 334.761719 7.457031 336.242188 7.667969 Z M 332.835938 8.519531 C 332.835938 8.800781 332.835938 9.082031 332.835938 9.371094 C 332.554688 9.371094 332.273438 9.371094 331.984375 9.371094 C 331.382812 10.582031 331.425781 11.4375 331.558594 12.777344 C 332.164062 13.878906 332.164062 13.878906 333.261719 14.480469 C 334.882812 14.480469 335.835938 14.398438 337.09375 13.335938 C 337.683594 11.96875 337.542969 11.203125 337.09375 9.796875 C 336.066406 8.65625 335.550781 8.527344 334.007812 8.4375 C 333.429688 8.476562 333.429688 8.476562 332.835938 8.519531 Z M 332.835938 8.519531 "/>
<path style=" stroke:none;fill-rule:nonzero;fill:rgb(0%,0%,0%);fill-opacity:1;" d="M 420.089844 7.667969 C 420.511719 7.667969 420.933594 7.667969 421.367188 7.667969 C 421.367188 8.792969 421.367188 9.914062 421.367188 11.074219 C 424.839844 11.066406 428.3125 11.050781 431.789062 11.019531 C 433.402344 11.003906 435.015625 10.992188 436.628906 10.992188 C 438.183594 10.988281 439.742188 10.976562 441.296875 10.957031 C 441.890625 10.953125 442.484375 10.949219 443.078125 10.953125 C 443.910156 10.953125 444.742188 10.941406 445.574219 10.929688 C 446.046875 10.925781 446.519531 10.921875 447.007812 10.921875 C 448.269531 10.765625 448.269531 10.765625 448.902344 9.617188 C 449.085938 9.253906 449.269531 8.894531 449.457031 8.519531 C 451.054688 7.453125 451.824219 7.4375 453.714844 7.667969 C 454.832031 8.59375 455.617188 9.347656 456.265625 10.648438 C 459.351562 10.679688 462.4375 10.699219 465.523438 10.714844 C 466.957031 10.722656 468.390625 10.730469 469.824219 10.746094 C 471.46875 10.761719 473.117188 10.765625 474.761719 10.773438 C 475.277344 10.78125 475.792969 10.785156 476.324219 10.792969 C 476.800781 10.792969 477.277344 10.792969 477.769531 10.792969 C 478.398438 10.796875 478.398438 10.796875 479.042969 10.800781 C 480.292969 10.621094 480.539062 10.261719 481.378906 9.371094 C 482.921875 9.449219 482.921875 9.449219 484.359375 9.796875 C 484.5 10.078125 484.640625 10.359375 484.785156 10.648438 C 497.003906 10.789062 509.222656 10.929688 521.8125 11.074219 C 522.09375 10.511719 522.375 9.949219 522.664062 9.371094 C 523.648438 8.757812 523.648438 8.757812 524.792969 8.519531 C 526.027344 9.078125 526.734375 9.421875 527.347656 10.648438 C 544.199219 10.859375 544.199219 10.859375 561.394531 11.074219 C 561.253906 11.355469 561.113281 11.636719 560.96875 11.925781 C 549.875 11.925781 538.777344 11.925781 527.347656 11.925781 C 527.066406 12.488281 526.785156 13.050781 526.496094 13.628906 C 525.21875 14.480469 525.21875 14.480469 524.152344 14.402344 C 523.019531 14.035156 522.527344 13.71875 521.8125 12.777344 C 521.8125 12.496094 521.8125 12.214844 521.8125 11.925781 C 517.007812 11.953125 512.199219 11.984375 507.394531 12.027344 C 505.164062 12.046875 502.933594 12.0625 500.699219 12.074219 C 498.546875 12.085938 496.394531 12.101562 494.242188 12.125 C 493.421875 12.128906 492.597656 12.136719 491.777344 12.136719 C 490.625 12.140625 489.476562 12.152344 488.328125 12.167969 C 487.984375 12.167969 487.644531 12.167969 487.292969 12.164062 C 485.511719 12.152344 485.511719 12.152344 484.019531 13.007812 C 483.765625 13.316406 483.765625 13.316406 483.507812 13.628906 C 481.964844 13.550781 481.964844 13.550781 480.527344 13.203125 C 480.386719 12.921875 480.246094 12.640625 480.101562 12.351562 C 476.738281 12.289062 473.375 12.242188 470.011719 12.210938 C 468.867188 12.199219 467.722656 12.183594 466.578125 12.160156 C 464.933594 12.128906 463.292969 12.113281 461.648438 12.101562 C 461.132812 12.089844 460.621094 12.074219 460.09375 12.0625 C 458.769531 12.0625 457.5625 12.078125 456.265625 12.351562 C 455.089844 13.535156 455.089844 13.535156 454.566406 14.90625 C 453.246094 15.566406 452.191406 15.457031 450.734375 15.332031 C 449.292969 14.421875 448.722656 13.980469 448.179688 12.351562 C 439.332031 12.210938 430.484375 12.070312 421.367188 11.925781 C 421.367188 13.050781 421.367188 14.175781 421.367188 15.332031 C 420.945312 15.332031 420.523438 15.332031 420.089844 15.332031 C 420.089844 12.804688 420.089844 10.273438 420.089844 7.667969 Z M 449.457031 9.796875 C 449.214844 10.976562 449.21875 12.023438 449.457031 13.203125 C 450.0625 14.164062 450.0625 14.164062 451.160156 14.480469 C 452.699219 14.484375 452.699219 14.484375 454.140625 14.054688 C 455.128906 12.570312 455.203125 11.972656 454.992188 10.222656 C 454.144531 9.03125 453.671875 8.585938 452.222656 8.332031 C 450.890625 8.566406 450.339844 8.75 449.457031 9.796875 Z M 523.515625 9.796875 C 523.003906 10.789062 523.003906 10.789062 522.664062 11.925781 C 523.085938 12.558594 523.085938 12.558594 523.515625 13.203125 C 524.613281 13.308594 524.613281 13.308594 525.644531 13.203125 C 526.152344 12.210938 526.152344 12.210938 526.496094 11.074219 C 526.214844 10.652344 525.933594 10.230469 525.644531 9.796875 C 524.542969 9.691406 524.542969 9.691406 523.515625 9.796875 Z M 523.515625 9.796875 "/>
<path style=" stroke:none;fill-rule:nonzero;fill:rgb(0%,0%,0%);fill-opacity:1;" d="M 625.027344 7.746094 C 625.355469 7.777344 625.683594 7.8125 626.023438 7.84375 C 627.089844 8.132812 627.515625 8.535156 628.21875 9.371094 C 628.078125 9.792969 627.9375 10.214844 627.792969 10.648438 C 627.359375 10.214844 627.359375 10.214844 626.914062 9.769531 C 625.691406 8.789062 625.691406 8.789062 624.070312 8.996094 C 623.613281 9.121094 623.15625 9.242188 622.683594 9.371094 C 622.089844 10.5625 622.152344 11.460938 622.261719 12.777344 C 622.96875 13.859375 623.421875 14.027344 624.679688 14.347656 C 625.167969 14.414062 625.167969 14.414062 625.664062 14.480469 C 625.523438 14.761719 625.382812 15.042969 625.238281 15.332031 C 622.484375 15.074219 622.484375 15.074219 621.460938 14.320312 C 620.984375 13.628906 620.984375 13.628906 620.558594 12.351562 C 618.167969 12.210938 615.78125 12.070312 613.320312 11.925781 C 613.460938 11.644531 613.601562 11.363281 613.746094 11.074219 C 615.183594 10.976562 616.605469 10.9375 618.046875 10.945312 C 619.078125 10.9375 619.078125 10.9375 620.558594 10.648438 C 621.363281 9.652344 621.363281 9.652344 621.835938 8.519531 C 623.222656 7.59375 623.460938 7.566406 625.027344 7.746094 Z M 625.027344 7.746094 "/>
<path style=" stroke:none;fill-rule:nonzero;fill:rgb(0%,0%,0%);fill-opacity:1;" d="M 281.335938 8.945312 C 281.476562 8.945312 281.617188 8.945312 281.761719 8.945312 C 281.761719 11.054688 281.761719 13.160156 281.761719 15.332031 C 281.480469 15.332031 281.199219 15.332031 280.910156 15.332031 C 280.523438 12.964844 280.347656 11.210938 281.335938 8.945312 Z M 281.335938 8.945312 "/>
<path style=" stroke:none;fill-rule:nonzero;fill:rgb(0%,0%,0%);fill-opacity:1;" d="M 79.164062 7.667969 C 80.609375 8.578125 81.175781 9.019531 81.71875 10.648438 C 88.132812 10.679688 94.550781 10.699219 100.964844 10.714844 C 103.945312 10.722656 106.921875 10.730469 109.902344 10.746094 C 112.773438 10.757812 115.648438 10.765625 118.519531 10.769531 C 119.617188 10.773438 120.714844 10.777344 121.8125 10.785156 C 123.347656 10.792969 124.878906 10.792969 126.414062 10.792969 C 126.871094 10.796875 127.328125 10.800781 127.800781 10.808594 C 128.425781 10.804688 128.425781 10.804688 129.0625 10.800781 C 129.425781 10.804688 129.789062 10.804688 130.164062 10.804688 C 131.304688 10.613281 131.582031 10.179688 132.367188 9.371094 C 133.910156 9.449219 133.910156 9.449219 135.347656 9.796875 C 135.488281 10.078125 135.628906 10.359375 135.773438 10.648438 C 148.695312 10.789062 161.617188 10.929688 174.929688 11.074219 C 175.210938 10.511719 175.492188 9.949219 175.78125 9.371094 C 176.765625 8.757812 176.765625 8.757812 177.910156 8.519531 C 179.082031 9.023438 179.082031 9.023438 180.039062 9.796875 C 180.179688 10.21875 180.320312 10.640625 180.464844 11.074219 C 185.269531 11.046875 190.074219 11.015625 194.882812 10.972656 C 197.113281 10.953125 199.34375 10.9375 201.574219 10.925781 C 203.730469 10.914062 205.882812 10.898438 208.035156 10.875 C 208.855469 10.871094 209.679688 10.863281 210.5 10.863281 C 211.648438 10.859375 212.800781 10.847656 213.949219 10.832031 C 214.289062 10.832031 214.632812 10.832031 214.984375 10.835938 C 216.769531 10.835938 216.769531 10.835938 218.285156 10.007812 C 218.527344 9.691406 218.527344 9.691406 218.769531 9.371094 C 219.832031 9.210938 219.832031 9.210938 220.898438 9.371094 C 221.082031 9.582031 221.269531 9.792969 221.460938 10.007812 C 222.460938 10.902344 223.140625 10.816406 224.46875 10.832031 C 224.9375 10.839844 225.40625 10.847656 225.886719 10.859375 C 226.394531 10.859375 226.898438 10.863281 227.421875 10.867188 C 227.9375 10.875 228.457031 10.882812 228.988281 10.890625 C 230.644531 10.914062 232.300781 10.925781 233.960938 10.941406 C 235.082031 10.957031 236.203125 10.96875 237.324219 10.984375 C 240.078125 11.019531 242.832031 11.050781 245.585938 11.074219 C 245.722656 11.355469 245.863281 11.636719 246.007812 11.925781 C 245.714844 11.929688 245.417969 11.929688 245.113281 11.933594 C 242.328125 11.957031 239.539062 11.988281 236.753906 12.027344 C 235.320312 12.046875 233.886719 12.0625 232.453125 12.074219 C 230.808594 12.085938 229.160156 12.109375 227.511719 12.132812 C 227 12.136719 226.484375 12.140625 225.953125 12.140625 C 225.476562 12.152344 225 12.160156 224.507812 12.167969 C 224.085938 12.171875 223.667969 12.175781 223.234375 12.183594 C 221.992188 12.382812 221.738281 12.742188 220.898438 13.628906 C 219.355469 13.550781 219.355469 13.550781 217.917969 13.203125 C 217.777344 12.921875 217.636719 12.640625 217.492188 12.351562 C 205.273438 12.210938 193.054688 12.070312 180.464844 11.925781 C 180.183594 12.488281 179.902344 13.050781 179.613281 13.628906 C 178.335938 14.480469 178.335938 14.480469 177.273438 14.402344 C 176.140625 14.035156 175.644531 13.71875 174.929688 12.777344 C 174.929688 12.496094 174.929688 12.214844 174.929688 11.925781 C 169.847656 11.953125 164.765625 11.984375 159.679688 12.027344 C 157.320312 12.046875 154.960938 12.0625 152.601562 12.074219 C 150.324219 12.085938 148.046875 12.101562 145.769531 12.125 C 144.898438 12.128906 144.03125 12.136719 143.160156 12.136719 C 141.945312 12.140625 140.730469 12.152344 139.511719 12.167969 C 139.152344 12.167969 138.789062 12.167969 138.417969 12.164062 C 136.597656 12.117188 136.597656 12.117188 135.097656 12.992188 C 134.898438 13.203125 134.703125 13.414062 134.496094 13.628906 C 133.433594 13.789062 133.433594 13.789062 132.367188 13.628906 C 132.175781 13.417969 131.988281 13.207031 131.789062 12.992188 C 130.859375 12.136719 130.324219 12.1875 129.074219 12.183594 C 128.65625 12.179688 128.242188 12.175781 127.8125 12.167969 C 127.359375 12.171875 126.902344 12.171875 126.433594 12.171875 C 125.714844 12.167969 125.714844 12.167969 124.980469 12.160156 C 123.390625 12.152344 121.800781 12.152344 120.210938 12.152344 C 119.109375 12.148438 118.007812 12.144531 116.90625 12.140625 C 114.59375 12.136719 112.28125 12.136719 109.972656 12.136719 C 107.296875 12.140625 104.625 12.132812 101.953125 12.117188 C 99.382812 12.101562 96.8125 12.097656 94.242188 12.101562 C 93.148438 12.097656 92.054688 12.09375 90.960938 12.085938 C 89.429688 12.078125 87.902344 12.082031 86.375 12.089844 C 85.921875 12.085938 85.464844 12.078125 84.996094 12.074219 C 83.863281 12.085938 82.828125 12.109375 81.71875 12.351562 C 80.824219 13.324219 80.824219 13.324219 80.441406 14.480469 C 78.851562 15.542969 78.070312 15.527344 76.1875 15.332031 C 74.742188 14.421875 74.175781 13.980469 73.632812 12.351562 C 65.488281 12.320312 57.347656 12.300781 49.203125 12.285156 C 45.421875 12.277344 41.640625 12.269531 37.863281 12.253906 C 34.566406 12.242188 31.273438 12.234375 27.980469 12.230469 C 26.234375 12.230469 24.488281 12.226562 22.742188 12.214844 C 21.101562 12.207031 19.460938 12.207031 17.820312 12.207031 C 17.214844 12.207031 16.613281 12.203125 16.007812 12.199219 C 15.1875 12.191406 14.367188 12.195312 13.542969 12.199219 C 12.851562 12.195312 12.851562 12.195312 12.148438 12.195312 C 11.792969 12.246094 11.433594 12.296875 11.066406 12.351562 C 10.644531 12.984375 10.644531 12.984375 10.214844 13.628906 C 8.964844 13.816406 8.964844 13.816406 7.660156 13.628906 C 6.808594 12.910156 6.808594 12.910156 6.382812 11.925781 C 6.667969 10.90625 6.902344 10.128906 7.660156 9.371094 C 8.910156 9.265625 8.910156 9.265625 10.214844 9.371094 C 10.636719 10.003906 10.636719 10.003906 11.066406 10.648438 C 12.191406 10.84375 12.191406 10.84375 13.535156 10.816406 C 14.0625 10.820312 14.585938 10.824219 15.128906 10.832031 C 15.714844 10.828125 16.300781 10.828125 16.886719 10.828125 C 17.5 10.832031 18.113281 10.832031 18.730469 10.839844 C 20.402344 10.847656 22.074219 10.847656 23.746094 10.847656 C 25.136719 10.847656 26.53125 10.851562 27.925781 10.855469 C 31.214844 10.863281 34.503906 10.863281 37.792969 10.863281 C 41.1875 10.859375 44.582031 10.867188 47.976562 10.882812 C 50.890625 10.898438 53.800781 10.902344 56.714844 10.902344 C 58.457031 10.898438 60.195312 10.902344 61.9375 10.914062 C 63.574219 10.921875 65.210938 10.921875 66.847656 10.914062 C 67.449219 10.910156 68.050781 10.914062 68.652344 10.917969 C 69.46875 10.925781 70.289062 10.921875 71.109375 10.914062 C 71.796875 10.914062 71.796875 10.914062 72.5 10.914062 C 73.726562 10.757812 73.726562 10.757812 74.347656 9.621094 C 74.535156 9.257812 74.71875 8.894531 74.910156 8.519531 C 76.5 7.457031 77.28125 7.472656 79.164062 7.667969 Z M 74.910156 10.222656 C 74.648438 11.78125 74.71875 12.480469 75.574219 13.816406 C 76.625 14.625 76.625 14.625 78.15625 14.453125 C 79.699219 14.195312 79.699219 14.195312 80.441406 12.777344 C 80.640625 11.222656 80.644531 10.503906 79.722656 9.210938 C 78.789062 8.453125 78.789062 8.453125 77.675781 8.304688 C 76.242188 8.59375 75.753906 9.035156 74.910156 10.222656 Z M 176.632812 9.796875 C 176.125 10.789062 176.125 10.789062 175.78125 11.925781 C 176.203125 12.558594 176.203125 12.558594 176.632812 13.203125 C 177.734375 13.308594 177.734375 13.308594 178.761719 13.203125 C 179.269531 12.210938 179.269531 12.210938 179.613281 11.074219 C 179.332031 10.652344 179.050781 10.230469 178.761719 9.796875 C 177.660156 9.691406 177.660156 9.691406 176.632812 9.796875 Z M 176.632812 9.796875 "/>
<path style=" stroke:none;fill-rule:nonzero;fill:rgb(0%,0%,0%);fill-opacity:1;" d="M 568.925781 9.15625 C 570.09375 9.410156 570.375 9.804688 571.183594 10.648438 C 572.578125 11.003906 573.878906 11.125 575.3125 11.121094 C 575.695312 11.121094 576.078125 11.121094 576.472656 11.121094 C 576.882812 11.121094 577.289062 11.117188 577.710938 11.117188 C 578.132812 11.113281 578.554688 11.113281 578.988281 11.113281 C 580.335938 11.113281 581.679688 11.105469 583.023438 11.101562 C 583.9375 11.097656 584.847656 11.097656 585.761719 11.09375 C 587.996094 11.089844 590.230469 11.082031 592.464844 11.074219 C 592.464844 11.355469 592.464844 11.636719 592.464844 11.925781 C 585.304688 11.925781 578.140625 11.925781 570.757812 11.925781 C 570.480469 12.488281 570.199219 13.050781 569.910156 13.628906 C 568.910156 13.519531 567.917969 13.378906 566.929688 13.203125 C 566.789062 12.921875 566.648438 12.640625 566.503906 12.351562 C 566.082031 12.070312 565.660156 11.789062 565.226562 11.5 C 567.449219 9.433594 567.449219 9.433594 568.925781 9.15625 Z M 568.925781 9.15625 "/>
<path style=" stroke:none;fill-rule:nonzero;fill:rgb(0%,0%,0%);fill-opacity:1;" d="M 692.0625 9.371094 C 693.285156 9.316406 693.285156 9.316406 694.617188 9.371094 C 695.46875 10.222656 695.46875 10.222656 695.574219 11.5 C 695.46875 12.777344 695.46875 12.777344 694.617188 13.628906 C 693.285156 13.683594 693.285156 13.683594 692.0625 13.628906 C 691.78125 13.066406 691.5 12.503906 691.210938 11.925781 C 690.085938 11.925781 688.964844 11.925781 687.804688 11.925781 C 687.945312 11.644531 688.085938 11.363281 688.230469 11.074219 C 689.214844 11.074219 690.199219 11.074219 691.210938 11.074219 C 691.492188 10.511719 691.773438 9.949219 692.0625 9.371094 Z M 692.488281 11.074219 C 692.488281 11.355469 692.488281 11.636719 692.488281 11.925781 C 692.769531 11.785156 693.050781 11.644531 693.339844 11.5 C 693.058594 11.359375 692.777344 11.21875 692.488281 11.074219 Z M 692.488281 11.074219 "/>
<path style=" stroke:none;fill-rule:nonzero;fill:rgb(0%,0%,0%);fill-opacity:1;" d="M 249.839844 9.371094 C 250.542969 9.792969 251.246094 10.214844 251.96875 10.648438 C 251.863281 11.660156 251.863281 11.660156 251.542969 12.777344 C 250.664062 13.335938 250.664062 13.335938 249.839844 13.628906 C 248.960938 12.882812 248.960938 12.882812 248.136719 11.925781 C 248.164062 11.019531 248.164062 11.019531 248.5625 10.222656 C 248.984375 9.941406 249.40625 9.660156 249.839844 9.371094 Z M 249.839844 9.371094 "/>
<path style=" stroke:none;fill-rule:nonzero;fill:rgb(0%,0%,0%);fill-opacity:1;" d="M 452.011719 9.371094 C 452.714844 9.792969 453.414062 10.214844 454.140625 10.648438 C 454.03125 11.660156 454.03125 11.660156 453.714844 12.777344 C 452.835938 13.335938 452.835938 13.335938 452.011719 13.628906 C 451.449219 13.207031 450.886719 12.785156 450.308594 12.351562 C 450.441406 11.339844 450.441406 11.339844 450.734375 10.222656 C 451.15625 9.941406 451.578125 9.660156 452.011719 9.371094 Z M 452.011719 9.371094 "/>
<path style=" stroke:none;fill-rule:nonzero;fill:rgb(0%,0%,0%);fill-opacity:1;" d="M 628.21875 10.648438 C 628.640625 10.929688 629.0625 11.210938 629.496094 11.5 C 628.949219 12.226562 628.382812 12.9375 627.792969 13.628906 C 627.511719 13.628906 627.230469 13.628906 626.941406 13.628906 C 627.082031 12.925781 627.222656 12.222656 627.367188 11.5 C 627.648438 11.5 627.929688 11.5 628.21875 11.5 C 628.21875 11.21875 628.21875 10.9375 628.21875 10.648438 Z M 628.21875 10.648438 "/>
<path style=" stroke:none;fill-rule:nonzero;fill:rgb(0%,0%,0%);fill-opacity:1;" d="M 414.980469 7.667969 C 416.402344 8.910156 417.03125 9.671875 417.296875 11.554688 C 417.113281 12.742188 416.929688 13.492188 416.257812 14.480469 C 414.695312 15.523438 413.394531 15.6875 411.578125 15.332031 C 410.300781 14.347656 410.300781 14.347656 409.449219 13.203125 C 409.449219 12.78125 409.449219 12.359375 409.449219 11.925781 C 404.585938 11.933594 399.726562 11.949219 394.863281 11.980469 C 392.605469 11.996094 390.351562 12.007812 388.09375 12.007812 C 385.914062 12.011719 383.738281 12.023438 381.558594 12.042969 C 380.730469 12.046875 379.898438 12.050781 379.066406 12.046875 C 377.902344 12.046875 376.738281 12.058594 375.578125 12.070312 C 375.230469 12.066406 374.886719 12.0625 374.53125 12.058594 C 373.460938 12.058594 373.460938 12.058594 371.992188 12.351562 C 371.097656 13.367188 371.097656 13.367188 370.71875 14.480469 C 370.296875 14.339844 369.875 14.199219 369.441406 14.054688 C 369.722656 13.914062 370.003906 13.773438 370.292969 13.628906 C 370.363281 13.277344 370.433594 12.925781 370.503906 12.566406 C 370.574219 12.214844 370.644531 11.863281 370.71875 11.5 C 372.101562 10.808594 373.621094 11.019531 375.140625 11.027344 C 375.511719 11.027344 375.882812 11.027344 376.261719 11.027344 C 377.488281 11.027344 378.710938 11.027344 379.9375 11.03125 C 380.785156 11.035156 381.632812 11.035156 382.480469 11.035156 C 384.71875 11.035156 386.953125 11.039062 389.1875 11.042969 C 391.464844 11.050781 393.746094 11.050781 396.023438 11.054688 C 400.5 11.058594 404.972656 11.066406 409.449219 11.074219 C 409.503906 10.738281 409.5625 10.402344 409.621094 10.058594 C 409.875 8.945312 409.875 8.945312 410.539062 8.171875 C 412.027344 7.445312 413.386719 7.277344 414.980469 7.667969 Z M 411.257812 9.210938 C 410.199219 10.152344 410.199219 10.152344 410.035156 11.5 C 410.203125 12.839844 410.203125 12.839844 411.203125 13.816406 C 412.390625 14.585938 412.390625 14.585938 413.757812 14.480469 C 414.992188 14.136719 414.992188 14.136719 415.804688 13.335938 C 416.433594 11.96875 416.285156 11.21875 415.832031 9.796875 C 415.105469 8.957031 415.105469 8.957031 414.128906 8.519531 C 412.445312 8.375 412.445312 8.375 411.257812 9.210938 Z M 411.257812 9.210938 "/>
<path style=" stroke:none;fill-rule:nonzero;fill:rgb(0%,0%,0%);fill-opacity:1;" d="M 596.136719 10.976562 C 596.796875 10.976562 597.460938 10.980469 598.121094 10.992188 C 598.644531 10.992188 598.644531 10.992188 599.179688 10.996094 C 600.292969 11 601.40625 11.011719 602.523438 11.019531 C 603.277344 11.023438 604.03125 11.027344 604.785156 11.03125 C 606.636719 11.042969 608.492188 11.054688 610.34375 11.074219 C 610.34375 11.355469 610.34375 11.636719 610.34375 11.925781 C 604.863281 11.925781 599.386719 11.925781 593.742188 11.925781 C 594.59375 11.074219 594.59375 11.074219 596.136719 10.976562 Z M 596.136719 10.976562 "/>
<path style=" stroke:none;fill-rule:nonzero;fill:rgb(0%,0%,0%);fill-opacity:1;" d="M 637.160156 10.96875 C 637.601562 10.972656 637.601562 10.972656 638.054688 10.976562 C 638.367188 10.976562 638.679688 10.976562 639 10.976562 C 640.03125 10.976562 641.0625 10.984375 642.09375 10.992188 C 642.808594 10.992188 643.523438 10.992188 644.238281 10.996094 C 646.121094 10.996094 648.003906 11.007812 649.882812 11.015625 C 651.804688 11.023438 653.726562 11.027344 655.644531 11.03125 C 659.414062 11.042969 663.183594 11.054688 666.949219 11.074219 C 666.949219 11.355469 666.949219 11.636719 666.949219 11.925781 C 656.136719 11.925781 645.320312 11.925781 634.175781 11.925781 C 635.210938 10.890625 635.75 10.972656 637.160156 10.96875 Z M 637.160156 10.96875 "/>
<path style=" stroke:none;fill-rule:nonzero;fill:rgb(0%,0%,0%);fill-opacity:1;" d="M 669.929688 11.074219 C 673.863281 11.074219 677.796875 11.074219 681.847656 11.074219 C 681.847656 11.355469 681.847656 11.636719 681.847656 11.925781 C 677.914062 11.925781 673.980469 11.925781 669.929688 11.925781 C 669.929688 11.644531 669.929688 11.363281 669.929688 11.074219 Z M 669.929688 11.074219 "/>
</g>
</svg>
