<svg xmlns="http://www.w3.org/2000/svg" width="700" height="700" viewBox="0 0 700 700">
<g>
<path d="M 380.50 659.04 C374.45,659.68 368.94,660.67 368.25,661.23 C367.39,661.93 367.00,661.89 367.00,661.10 C367.00,660.28 364.39,660.14 357.75,660.60 C338.22,661.95 298.91,657.44 273.31,650.93 C234.46,641.03 195.81,622.72 164.00,599.13 C142.31,583.04 118.25,559.39 101.84,538.00 C72.37,499.60 52.60,455.87 43.09,408.00 C35.55,370.06 35.69,326.25 43.47,286.91 C61.91,193.64 124.02,112.44 209.70,69.59 C254.72,47.08 298.33,36.84 349.50,36.77 C379.97,36.72 401.27,39.34 428.50,46.47 C503.60,66.15 566.36,111.36 610.49,177.55 C618.87,190.13 634.45,219.67 638.99,231.60 C646.98,252.60 653.08,273.78 656.53,292.50 C657.44,297.45 658.81,302.20 659.58,303.06 C660.55,304.16 660.66,304.94 659.92,305.68 C659.19,306.41 659.23,309.85 660.06,317.12 C661.56,330.29 661.60,365.28 660.12,379.00 C653.51,440.31 631.03,495.47 593.49,542.50 C540.58,608.78 465.23,650.01 380.50,659.04 ZM 319.00 650.92 C323.67,651.43 339.42,651.71 354.00,651.54 C383.22,651.20 396.18,649.70 420.50,643.85 C486.98,627.86 546.89,589.06 589.32,534.50 C613.72,503.13 634.01,461.86 643.63,424.00 C646.81,411.52 648.28,403.76 651.24,384.00 C651.86,379.86 652.38,363.52 652.41,347.50 C652.45,322.28 652.17,316.67 650.24,304.50 C638.47,230.13 603.21,166.15 547.51,118.11 C500.87,77.88 444.67,53.34 383.50,46.48 C366.15,44.53 332.17,44.58 315.00,46.57 C267.03,52.13 221.96,68.65 181.50,95.49 C137.21,124.87 101.28,165.61 77.02,213.96 C73.35,221.26 72.41,224.01 73.26,224.86 C73.89,225.49 74.74,226.00 75.16,226.00 C75.58,226.00 78.85,220.26 82.41,213.25 C90.63,197.08 97.22,186.22 106.80,173.07 C126.71,145.71 151.26,121.66 178.75,102.56 C183.29,99.41 187.00,96.15 187.00,95.31 C187.00,94.37 187.57,94.01 188.48,94.35 C189.30,94.67 193.39,92.90 197.58,90.42 C241.23,64.61 289.01,50.88 340.50,49.33 C403.11,47.44 462.82,64.10 513.01,97.47 C596.22,152.78 645.41,240.53 648.68,339.50 C651.40,421.35 619.37,501.78 560.85,560.10 C506.29,614.47 435.07,645.30 358.50,647.71 C315.20,649.06 273.74,641.23 232.50,623.90 C142.03,585.89 73.62,501.50 55.53,405.61 C51.10,382.11 50.68,377.25 50.65,348.50 C50.63,324.38 50.94,318.49 52.87,306.00 C56.68,281.34 63.64,255.50 71.48,236.91 C74.59,229.53 74.67,227.00 71.79,227.00 C68.66,227.00 55.72,266.93 51.04,291.00 C44.76,323.36 44.18,365.34 49.59,397.50 C57.64,445.42 76.50,489.98 105.02,528.50 C112.72,538.90 131.51,560.43 138.63,567.00 C145.45,573.31 162.81,588.06 167.00,591.12 C213.19,624.87 264.05,644.88 319.00,650.92 ZM 220.59 535.50 C219.96,538.00 222.04,536.34 233.17,525.47 C240.50,518.31 268.89,490.91 296.25,464.59 C323.61,438.27 346.00,416.40 346.00,416.00 C346.00,414.67 332.91,413.83 331.41,415.07 C329.51,416.65 327.00,415.49 327.00,413.03 C327.00,411.58 326.35,411.00 324.72,411.00 C322.21,411.00 309.92,403.69 303.22,398.21 C293.62,390.36 283.04,373.35 281.41,363.14 C281.04,360.86 280.43,359.00 280.05,359.00 C279.67,359.00 278.17,362.97 276.72,367.82 C275.27,372.66 273.81,377.33 273.48,378.18 C273.09,379.21 273.59,379.92 274.94,380.27 C278.01,381.08 277.47,383.20 274.29,382.82 C271.67,382.51 271.49,382.82 268.17,393.50 C266.30,399.55 264.19,405.85 263.49,407.50 C262.79,409.15 258.81,420.85 254.64,433.50 C250.48,446.15 241.28,473.60 234.20,494.50 C227.13,515.40 221.00,533.85 220.59,535.50 ZM 458.00 517.29 C469.27,528.09 478.62,536.59 478.77,536.16 C479.23,534.84 446.00,437.52 444.97,437.16 C444.43,436.98 444.26,436.39 444.59,435.86 C445.18,434.90 420.00,358.67 419.32,359.35 C419.13,359.54 418.31,362.25 417.49,365.37 C411.02,390.22 384.66,412.38 358.75,414.75 C355.59,415.04 353.00,415.53 353.00,415.83 C353.00,416.60 358.23,422.00 358.97,422.00 C359.30,422.00 366.53,428.88 375.04,437.29 C389.28,451.38 400.06,461.77 458.00,517.29 ZM 508.17 475.74 L 536.34 517.98 L 539.92 515.30 C551.07,506.96 576.00,483.03 576.00,480.66 C576.00,480.40 570.81,475.80 564.46,470.45 C553.46,461.16 552.86,460.80 551.40,462.61 C549.95,464.40 549.89,464.36 550.44,461.78 C550.98,459.25 549.67,457.93 531.86,443.12 C520.18,433.40 512.14,427.39 511.27,427.73 C510.38,428.07 509.97,427.73 510.17,426.80 C510.48,425.44 495.66,412.61 450.50,375.13 C442.25,368.29 434.71,362.01 433.74,361.18 C432.78,360.35 431.78,359.89 431.52,360.15 C431.15,360.52 452.59,393.00 456.16,397.47 C456.61,398.04 461.54,405.48 467.12,414.00 C472.70,422.52 477.88,429.86 478.63,430.30 C479.38,430.74 480.00,431.64 480.00,432.30 C480.00,432.96 492.68,452.50 508.17,475.74 ZM 153.50 510.37 C160.34,516.06 162.77,517.58 163.63,516.68 C166.16,514.04 227.52,421.37 227.82,419.75 C228.00,418.79 228.54,418.00 229.04,418.00 C229.78,418.00 233.31,413.13 238.37,405.12 C239.09,403.98 238.43,403.86 234.71,404.42 C231.72,404.86 229.94,404.71 229.48,403.96 C228.22,401.93 231.00,400.50 236.20,400.50 L 241.29 400.50 L 254.60 381.00 C261.92,370.27 267.93,361.11 267.96,360.63 C268.02,359.36 262.96,363.35 239.09,383.41 C227.31,393.30 218.20,401.57 218.84,401.78 C219.48,401.99 220.00,402.82 220.00,403.62 C220.00,404.78 219.58,404.85 217.92,403.96 C216.30,403.09 215.46,403.17 214.17,404.28 C213.25,405.07 204.18,412.67 194.00,421.16 C183.82,429.66 166.73,443.97 156.00,452.97 C145.27,461.98 133.49,471.82 129.80,474.84 L 123.10 480.34 L 126.98 484.92 C132.73,491.73 143.35,501.91 153.50,510.37 ZM 487.46 545.75 C487.72,546.44 488.25,547.00 488.63,547.00 C491.85,547.00 532.00,522.72 532.00,520.77 C532.00,520.30 512.19,490.28 487.98,454.07 C456.84,407.47 443.31,388.05 441.73,387.61 C440.20,387.19 439.88,386.75 440.71,386.22 C441.57,385.66 440.02,382.54 435.36,375.47 L 434.68 374.42 C429.23,366.14 428.33,364.77 427.83,364.91 C427.71,364.94 427.61,365.06 427.48,365.19 C427.11,365.56 483.64,535.77 487.46,545.75 ZM 568.00 467.08 C573.78,471.97 578.95,475.96 579.50,475.96 C580.70,475.96 591.08,462.10 596.71,452.99 C602.45,443.69 607.20,434.00 606.01,434.00 C605.46,434.00 604.99,434.34 604.98,434.75 C604.97,435.16 604.03,436.62 602.90,438.00 L 600.84 440.50 L 601.42 437.84 C601.73,436.38 602.24,434.53 602.55,433.72 C602.94,432.72 601.91,431.78 599.31,430.72 C597.21,429.87 567.32,416.13 532.89,400.18 C498.45,384.23 469.56,371.25 468.69,371.34 C467.83,371.43 467.11,371.12 467.10,370.66 C467.08,369.64 437.96,355.85 436.71,356.26 C436.02,356.49 475.56,390.22 497.89,408.45 C499.88,410.07 503.39,413.10 505.71,415.18 C508.58,417.76 510.47,418.76 511.63,418.31 C512.85,417.84 513.19,418.06 512.81,419.08 C512.46,420.02 518.53,425.75 530.74,436.00 C540.90,444.52 549.84,451.65 550.61,451.82 C551.72,452.08 551.80,451.61 551.00,449.49 C550.01,446.90 550.37,445.00 551.84,445.00 C552.24,445.00 553.68,447.97 555.03,451.60 C557.34,457.76 558.20,458.79 568.00,467.08 ZM 113.66 468.75 C116.60,472.74 119.38,476.00 119.83,476.00 C121.04,476.00 125.15,472.69 154.63,447.94 C169.41,435.53 192.90,415.85 206.82,404.19 C222.07,391.44 231.38,383.00 230.23,383.00 C229.17,383.00 227.61,382.21 226.76,381.25 C224.87,379.11 224.73,374.00 226.56,374.00 C229.38,374.00 232.86,375.98 233.48,377.94 C233.84,379.07 234.52,380.00 235.00,380.00 C235.48,380.00 240.53,376.06 246.22,371.25 C251.92,366.44 258.08,361.24 259.92,359.71 C261.75,358.17 263.05,356.72 262.81,356.48 C261.84,355.50 217.97,376.55 217.43,378.25 C217.05,379.42 215.84,380.00 213.79,380.00 C210.56,380.00 191.03,388.43 189.77,390.37 C189.36,390.99 189.02,392.80 189.02,394.38 C188.99,398.29 186.91,405.00 185.72,405.00 C185.16,405.00 185.03,403.62 185.40,401.75 C185.76,399.96 186.33,396.79 186.66,394.70 L 187.27 390.91 L 181.89 393.33 C178.92,394.66 167.73,399.80 157.00,404.75 C110.43,426.27 93.52,434.14 93.21,434.46 C92.06,435.60 104.18,455.93 113.66,468.75 ZM 200.45 541.61 C205.98,544.56 210.73,546.97 211.00,546.98 C211.27,546.98 222.04,515.60 234.92,477.24 C247.80,438.88 258.53,406.94 258.77,406.25 C259.04,405.51 258.36,405.00 257.11,405.00 C255.43,405.00 255.00,405.62 255.00,408.00 C255.00,409.65 254.57,411.00 254.05,411.00 C251.58,411.00 248.00,408.49 248.00,406.77 C248.00,405.43 247.41,404.96 246.03,405.18 C243.84,405.54 210.00,454.94 210.00,457.78 C210.00,458.68 208.89,460.34 207.53,461.46 C206.18,462.58 196.49,476.33 186.01,492.00 L 166.94 520.50 L 169.72 522.79 C173.93,526.27 189.17,535.60 200.45,541.61 ZM 607.16 429.10 C607.89,429.55 608.82,429.58 609.23,429.17 C611.65,426.75 623.05,391.71 621.81,390.48 C621.53,390.20 617.78,389.20 613.47,388.27 C607.50,386.97 605.55,386.86 605.24,387.79 C605.02,388.45 604.15,389.00 603.31,389.00 C602.37,389.00 602.01,388.43 602.36,387.50 C602.68,386.67 602.81,386.00 602.66,386.00 C602.51,386.00 596.34,384.69 588.94,383.09 C557.46,376.28 549.76,374.89 546.93,375.51 C544.80,375.98 544.00,375.78 544.00,374.78 C544.00,373.87 541.25,372.84 535.75,371.70 C524.68,369.41 524.08,369.47 522.85,373.00 C522.27,374.65 521.35,376.00 520.79,376.00 C519.80,376.00 520.02,374.32 521.48,370.79 C522.00,369.53 521.57,368.94 519.84,368.52 C512.49,366.75 470.78,358.06 470.19,358.18 C469.81,358.25 468.83,358.04 468.00,357.71 C465.73,356.79 447.29,353.00 445.27,353.03 C443.70,353.06 443.73,353.20 445.50,354.22 C452.54,358.31 511.56,384.80 511.83,383.99 C512.41,382.26 515.00,382.92 515.00,384.80 C515.00,387.01 522.75,391.00 527.03,391.00 C528.81,391.00 530.00,391.52 530.00,392.31 C530.00,393.04 541.89,399.10 557.25,406.19 C582.94,418.05 584.61,418.67 586.41,417.13 C588.21,415.59 588.28,415.62 587.73,417.81 C587.22,419.88 587.93,420.47 594.65,423.54 C598.77,425.41 602.98,426.85 604.01,426.73 C605.03,426.60 605.86,426.90 605.85,427.39 C605.84,427.88 606.43,428.65 607.16,429.10 ZM 87.19 422.75 C88.84,426.74 90.36,430.00 90.57,430.00 C91.17,430.00 140.80,407.15 147.00,404.02 C150.02,402.50 155.65,399.88 159.50,398.20 C163.35,396.53 166.37,394.61 166.21,393.95 C166.03,393.22 166.55,393.00 167.53,393.37 C169.26,394.04 193.00,383.30 193.00,381.85 C193.00,380.63 191.60,380.80 190.20,382.20 C188.67,383.73 188.64,381.81 190.05,373.13 C190.62,369.62 190.94,366.60 190.76,366.43 C190.45,366.12 181.85,368.02 181.19,368.54 C181.02,368.67 181.56,370.41 182.39,372.39 L 183.90 376.00 L 180.53 376.00 C177.60,376.00 177.07,375.61 176.50,373.00 C176.12,371.26 175.20,370.00 174.31,370.00 C173.13,370.00 91.95,386.85 80.25,389.52 C78.58,389.91 78.00,390.75 78.00,392.81 C78.00,396.22 83.14,412.95 87.19,422.75 ZM 604.21 381.54 C612.62,383.35 620.41,384.87 621.53,384.91 C623.31,384.99 623.72,383.99 624.87,376.75 C625.59,372.21 626.43,364.12 626.74,358.77 L 627.29 349.05 L 540.39 349.10 C492.94,349.13 454.49,349.32 454.49,349.53 C454.49,349.54 454.50,349.54 454.50,349.54 C455.76,350.03 499.72,359.39 534.50,366.58 C541.10,367.94 549.19,369.70 552.47,370.47 C557.07,371.56 558.63,371.61 559.24,370.70 C559.84,369.80 560.35,369.90 561.27,371.06 C562.55,372.68 575.85,376.00 581.05,376.00 C583.37,376.00 584.28,375.40 585.05,373.38 C585.75,371.54 585.70,370.34 584.90,369.38 C584.02,368.32 584.07,368.01 585.13,368.03 C586.92,368.08 590.05,370.80 592.27,374.25 C594.07,377.04 593.40,378.00 591.20,375.80 C590.28,374.88 589.73,374.87 588.82,375.78 C588.17,376.43 587.92,377.25 588.27,377.61 C588.62,377.96 595.80,379.73 604.21,381.54 ZM 75.62 383.25 C75.90,384.21 76.79,385.00 77.59,385.00 C78.88,385.00 137.88,372.73 150.25,369.89 C152.86,369.29 154.99,368.51 154.98,368.15 C154.94,366.26 152.80,364.92 146.48,362.82 C141.63,361.21 140.20,360.40 141.81,360.17 C143.08,359.99 144.37,359.20 144.67,358.42 C144.97,357.64 145.83,357.00 146.58,357.00 C147.57,357.00 147.78,356.16 147.35,354.00 C146.78,351.17 146.93,351.00 149.91,351.00 C152.62,351.00 152.94,351.25 152.13,352.76 C151.61,353.73 150.24,355.37 149.09,356.42 C147.94,357.46 147.00,358.67 147.00,359.11 C147.00,359.55 149.07,360.82 151.59,361.94 C154.28,363.13 156.40,364.80 156.71,365.98 C157.00,367.09 157.74,368.00 158.37,368.00 C159.71,368.00 192.28,361.07 192.54,360.73 C192.64,360.61 192.97,357.97 193.28,354.87 L 193.83 349.23 L 176.92 349.07 C161.27,348.93 160.00,349.05 159.97,350.71 C159.94,352.41 159.87,352.41 158.61,350.75 C157.38,349.13 154.08,349.00 114.62,349.00 L 71.95 349.00 L 72.52 357.25 C73.16,366.49 74.84,380.58 75.62,383.25 ZM 223.14 552.77 C227.19,554.50 230.79,555.82 231.13,555.70 C231.84,555.48 293.76,496.15 318.00,472.48 C326.52,464.16 336.31,454.73 339.75,451.52 L 346.00 445.70 L 346.00 424.71 L 340.25 430.06 C334.51,435.41 310.35,458.61 257.53,509.50 C242.12,524.35 226.42,539.45 222.64,543.06 L 215.78 549.63 ZM 456.69 545.23 L 467.88 556.03 L 473.69 553.42 C476.88,551.99 480.06,550.58 480.75,550.30 C481.44,550.02 482.00,549.48 482.00,549.10 C482.00,548.45 367.83,438.16 357.82,429.16 L 353.00 424.81 L 353.00 445.75 L 357.75 450.02 C360.36,452.37 368.35,459.99 375.50,466.95 C382.65,473.91 401.33,491.94 417.00,507.02 C432.67,522.10 450.53,539.30 456.69,545.23 ZM 332.73 593.81 L 349.46 609.80 L 361.98 597.98 C368.86,591.48 376.41,584.20 378.75,581.80 L 383.00 577.42 L 366.48 561.67 C354.97,550.70 349.55,546.16 348.60,546.71 C347.85,547.15 340.22,554.32 331.63,562.66 L 316.01 577.82 ZM 340.50 409.54 C341.05,409.71 342.51,409.88 343.75,409.92 C345.86,409.99 346.00,409.59 346.00,403.61 C346.00,396.82 345.41,396.00 340.51,396.00 C337.10,396.00 327.26,392.10 321.50,388.48 C303.99,377.45 294.28,355.44 297.92,335.04 C299.80,324.53 304.87,315.19 313.13,307.00 L 320.06 300.15 L 316.84 295.57 C315.07,293.06 312.97,291.00 312.17,291.00 C311.38,291.00 307.15,294.65 302.78,299.11 C297.02,304.97 294.96,307.73 295.32,309.11 C295.63,310.29 295.29,311.00 294.42,311.00 C292.45,311.00 288.21,319.88 285.93,328.76 C280.11,351.51 288.00,377.12 305.71,392.94 C313.07,399.52 321.18,404.25 323.55,403.34 C324.71,402.90 325.09,403.04 324.65,403.75 C324.00,404.80 325.88,405.56 335.50,408.16 C337.70,408.76 339.95,409.38 340.50,409.54 ZM 353.00 403.59 L 353.00 410.19 L 358.25 409.47 C375.95,407.07 393.23,396.39 403.22,381.67 C406.39,377.01 407.06,375.32 406.26,374.04 C405.11,372.20 407.17,368.37 408.79,369.37 C410.14,370.21 411.71,366.11 413.60,356.82 C415.51,347.38 415.06,334.70 412.51,326.50 C410.14,318.87 404.35,308.01 399.98,303.00 C396.18,298.64 396.06,298.58 396.03,301.17 C396.01,302.64 395.73,304.55 395.39,305.42 C394.17,308.60 393.40,306.86 393.66,301.52 C393.91,296.36 393.73,295.90 390.62,293.52 C388.80,292.14 386.84,291.00 386.27,291.00 C385.70,291.00 383.85,293.14 382.14,295.75 L 379.05 300.50 L 383.45 304.26 C385.87,306.33 389.50,310.27 391.51,313.01 C393.52,315.76 395.90,318.00 396.79,318.00 C397.97,318.00 398.11,318.29 397.28,319.12 C396.46,319.94 396.66,321.37 398.02,324.55 C406.96,345.40 399.72,372.42 381.55,385.97 C377.11,389.29 376.93,389.62 377.54,393.22 C378.05,396.27 377.87,397.00 376.59,397.00 C375.68,397.00 375.00,396.17 375.00,395.06 C375.00,391.87 373.43,391.78 364.96,394.45 C360.53,395.85 356.02,397.00 354.95,397.00 C353.21,397.00 353.00,397.72 353.00,403.59 ZM 433.83 544.19 C442.45,547.32 450.08,549.91 450.78,549.94 C452.14,550.00 441.35,539.38 388.00,488.16 C369.58,470.47 354.16,456.00 353.75,456.00 C353.34,456.00 353.00,460.43 353.00,465.84 L 353.00 475.68 L 385.58 507.09 L 418.17 538.50 ZM 248.00 549.62 C248.00,550.38 249.76,549.86 264.61,544.72 L 279.72 539.50 L 346.00 475.81 L 346.00 454.56 L 339.27 461.03 C335.57,464.59 326.23,473.61 318.52,481.07 C310.81,488.54 291.79,506.93 276.25,521.95 C260.71,536.96 248.00,549.42 248.00,549.62 ZM 319.32 605.72 C335.37,621.24 349.01,633.83 349.62,633.71 C350.82,633.49 409.13,577.80 408.66,577.33 C408.41,577.08 400.94,578.09 392.31,579.53 C389.87,579.94 384.47,584.52 369.32,599.02 L 349.52 617.97 L 342.51 611.24 C338.65,607.54 329.88,599.01 323.00,592.29 L 310.50 580.06 L 300.54 578.57 C295.06,577.75 290.48,577.18 290.36,577.30 C290.25,577.42 303.28,590.21 319.32,605.72 ZM 340.50 391.89 C345.86,393.11 350.76,393.20 351.44,392.10 C351.75,391.60 353.84,391.44 356.08,391.74 L 360.17 392.29 L 359.88 387.62 C359.53,381.95 362.22,378.60 367.26,378.40 C369.04,378.32 371.46,377.94 372.64,377.54 C374.47,376.93 374.96,377.36 375.97,380.42 L 377.16 384.01 L 380.83 381.01 C383.13,379.13 385.26,376.05 386.54,372.76 C387.76,369.59 389.44,367.11 390.77,366.52 C393.43,365.33 395.53,360.38 397.04,351.67 C399.48,337.66 393.97,321.01 383.39,310.43 C380.40,307.45 377.37,305.00 376.65,305.00 C375.48,305.00 369.00,312.96 369.00,314.39 C369.00,314.70 370.94,316.75 373.32,318.94 C387.18,331.72 388.33,353.30 375.92,367.44 C374.23,369.37 373.11,371.36 373.43,371.88 C374.87,374.22 372.72,376.00 368.45,376.00 C366.07,376.00 363.87,376.41 363.56,376.91 C363.25,377.41 359.85,378.38 356.00,379.07 C347.89,380.52 341.23,379.46 333.35,375.47 C328.13,372.83 326.76,372.97 329.38,375.87 C330.99,377.64 330.97,377.77 329.04,378.28 C326.63,378.91 326.35,380.81 328.55,381.66 C329.89,382.17 329.81,382.58 328.01,384.49 L 325.91 386.73 L 331.20 388.85 C334.12,390.02 338.30,391.39 340.50,391.89 ZM 302.00 574.47 C309.00,575.85 309.78,575.42 321.85,563.65 C328.26,557.40 336.33,549.64 339.79,546.40 L 346.09 540.50 L 345.79 527.00 L 345.50 513.50 L 316.50 541.45 C300.55,556.83 287.16,569.95 286.75,570.61 C286.21,571.48 288.05,572.15 293.25,573.00 C297.24,573.65 301.17,574.31 302.00,574.47 ZM 371.05 557.38 C385.49,571.48 389.63,575.00 391.80,574.98 C395.44,574.96 412.14,572.19 412.84,571.50 C413.14,571.19 412.51,570.13 411.44,569.13 C410.38,568.14 397.05,555.32 381.84,540.66 C366.63,526.00 353.92,514.00 353.59,514.00 C353.27,514.00 353.00,519.80 353.00,526.88 L 353.00 539.76 ZM 286.00 541.27 L 286.00 562.23 L 300.75 548.17 C308.86,540.43 322.40,527.44 330.82,519.30 L 346.14 504.50 L 345.82 494.36 L 345.50 484.23 L 315.75 512.75 ZM 353.00 504.72 L 412.50 561.85 L 412.82 551.67 L 413.14 541.50 L 400.18 529.00 C367.50,497.50 354.82,485.48 353.95,485.17 C353.39,484.97 353.00,488.96 353.00,494.78 ZM 338.69 373.03 C339.14,373.20 339.56,373.37 339.96,373.53 C343.08,374.76 344.95,375.51 346.10,374.89 C347.84,373.94 347.86,369.82 347.91,359.42 C347.92,358.54 347.92,357.61 347.93,356.63 L 348.04 338.26 L 340.87 328.60 C336.92,323.28 333.20,319.10 332.60,319.29 C331.99,319.49 331.39,321.42 331.25,323.58 C330.60,333.91 328.67,347.00 327.80,347.00 C327.21,347.00 326.96,342.52 327.16,335.50 C327.38,328.15 327.14,324.10 326.50,324.29 C325.95,324.45 324.04,327.45 322.25,330.95 C319.48,336.38 319.00,338.35 319.02,344.41 C319.04,351.25 321.05,357.95 324.24,361.79 C325.22,362.97 325.52,362.90 326.13,361.35 C326.68,359.96 326.88,360.30 326.93,362.70 C327.01,366.47 331.10,370.06 338.69,373.03 ZM 485.77 261.20 C488.36,266.04 490.79,270.00 491.17,270.00 C492.44,270.00 493.22,265.82 492.15,264.75 C491.46,264.06 491.42,263.08 492.05,261.91 C492.79,260.53 492.50,259.76 490.78,258.56 L 488.55 257.00 L 491.22 257.00 C492.68,257.00 494.16,257.45 494.50,258.00 C495.68,259.91 497.76,258.98 499.00,256.00 C499.95,253.72 502.48,251.80 509.69,247.90 L 519.14 242.79 L 509.88 237.64 C500.67,232.53 500.60,232.45 496.12,224.23 C493.65,219.68 491.24,216.09 490.78,216.24 C490.31,216.40 487.99,220.12 485.62,224.51 C481.40,232.33 481.12,232.61 472.52,237.43 L 463.73 242.37 L 466.06 244.25 C467.33,245.28 469.64,246.38 471.19,246.69 C472.73,247.00 474.00,247.65 474.00,248.14 C474.00,248.63 475.59,249.79 477.54,250.72 C480.35,252.06 482.04,254.21 485.77,261.20 ZM 202.88 265.25 C204.32,267.86 205.77,270.00 206.10,270.00 C206.43,270.00 207.49,268.25 208.45,266.10 C210.17,262.30 210.16,262.16 208.10,260.10 C206.95,258.95 206.00,257.55 206.00,257.00 C206.00,255.22 208.85,255.94 210.37,258.11 C211.82,260.19 211.88,260.16 213.85,256.36 C215.47,253.24 217.48,251.64 224.42,248.00 C229.13,245.52 232.99,243.20 232.99,242.83 C233.00,241.63 221.72,236.00 219.32,236.00 C218.05,236.00 217.11,235.66 217.24,235.25 C217.38,234.84 216.66,233.38 215.66,232.00 C214.65,230.62 212.02,226.17 209.80,222.10 L 205.77 214.71 L 200.82 223.84 L 195.87 232.96 L 187.43 237.57 C182.79,240.10 179.22,242.55 179.51,243.01 C179.79,243.47 183.76,245.89 188.33,248.38 C193.64,251.28 197.05,253.82 197.80,255.45 C198.43,256.85 199.45,258.00 200.06,258.00 C200.67,258.00 200.96,258.56 200.71,259.25 C200.46,259.94 201.44,262.64 202.88,265.25 ZM 351.32 374.39 C350.85,374.90 352.39,375.03 354.96,374.70 C357.42,374.39 359.95,373.43 360.58,372.57 C361.21,371.70 362.57,370.99 363.61,370.98 C366.48,370.96 368.02,369.65 367.04,368.06 C366.57,367.30 366.42,366.08 366.70,365.34 C367.35,363.65 370.99,363.57 371.03,365.25 C371.09,367.32 375.12,361.86 377.77,356.14 C379.91,351.51 380.18,349.75 379.79,343.14 C379.30,334.92 376.88,328.74 372.20,323.75 C368.93,320.26 367.62,320.26 368.29,323.74 C368.58,325.25 368.39,327.27 367.87,328.24 C367.27,329.37 367.30,330.70 367.97,331.94 C368.66,333.23 368.67,334.09 368.00,334.50 C367.45,334.84 367.00,336.13 367.00,337.36 C367.00,340.22 365.22,342.01 363.13,341.25 C361.71,340.74 361.72,340.91 363.25,342.66 C365.97,345.76 365.53,347.58 362.54,345.62 C361.18,344.73 359.43,344.00 358.64,344.00 C354.88,344.00 358.95,335.13 362.75,335.03 C363.44,335.01 364.00,333.85 364.00,332.43 C364.00,331.02 364.39,329.11 364.86,328.18 C366.15,325.66 367.00,319.00 366.03,319.00 C364.53,319.00 357.85,329.15 358.40,330.60 C358.73,331.46 358.28,332.00 357.22,332.01 C356.27,332.01 354.49,333.50 353.25,335.32 C351.15,338.41 351.00,339.68 351.00,354.65 C351.00,363.46 351.26,370.93 351.58,371.25 C351.90,371.57 353.75,370.90 355.69,369.76 C358.97,367.82 359.18,367.80 358.85,369.50 C358.66,370.50 357.07,371.81 355.32,372.41 C353.57,373.01 351.77,373.90 351.32,374.39 ZM 319.17 381.68 C322.11,384.81 322.81,384.62 323.45,380.50 C323.75,378.58 324.24,375.45 324.54,373.55 C324.98,370.71 324.47,369.33 321.64,365.62 C310.78,351.39 312.29,331.49 325.13,319.48 C327.81,316.97 330.00,314.73 330.00,314.49 C330.00,313.08 323.38,305.00 322.22,305.00 C319.63,305.00 310.22,315.84 306.70,322.87 C299.84,336.59 299.51,350.95 305.76,364.30 C309.06,371.35 314.40,378.00 316.77,378.00 C317.63,378.00 318.03,378.30 317.66,378.68 C317.29,379.05 317.96,380.40 319.17,381.68 ZM 370.00 578.03 C370.00,578.40 365.38,582.98 359.73,588.21 L 349.47 597.73 L 339.09 587.80 L 328.71 577.86 L 334.60 571.85 C337.85,568.55 342.65,564.03 345.27,561.81 L 350.05 557.77 L 360.02 567.57 C365.51,572.96 370.00,577.67 370.00,578.03 ZM 338.27 318.25 C342.61,324.16 346.57,329.00 347.06,329.00 C347.55,329.00 347.91,326.19 347.87,322.76 L 347.78 316.53 L 337.81 302.64 C332.33,295.00 327.64,288.22 327.39,287.57 C327.14,286.92 328.39,284.39 330.17,281.94 C331.95,279.50 336.69,272.82 340.70,267.09 C347.91,256.82 348.00,256.61 348.00,250.34 C348.00,246.85 347.66,244.00 347.25,244.01 C346.84,244.01 343.12,248.81 339.00,254.66 C329.40,268.29 326.58,272.23 320.68,280.33 L 315.87 286.94 L 323.12 297.22 C327.11,302.87 333.92,312.34 338.27,318.25 ZM 342.41 300.30 C346.21,305.64 349.43,309.90 349.56,309.76 C349.69,309.62 352.95,305.23 356.81,300.00 C362.02,292.93 363.55,290.17 362.77,289.23 C362.19,288.53 362.03,287.64 362.41,287.25 C362.80,286.87 363.48,287.16 363.93,287.89 C364.53,288.86 364.94,288.90 365.46,288.06 C365.86,287.42 364.46,284.60 362.32,281.71 C360.20,278.84 357.24,274.70 355.73,272.50 C354.22,270.30 352.17,267.45 351.17,266.16 L 349.36 263.83 L 341.79 274.32 C335.28,283.34 334.31,285.23 334.86,287.70 C335.21,289.28 338.61,294.95 342.41,300.30 ZM 351.00 318.87 C351.00,320.52 352.69,320.25 353.36,318.50 C353.70,317.61 355.20,317.00 357.03,317.00 C358.83,317.00 359.86,317.42 359.50,318.00 C359.16,318.55 359.25,318.98 359.69,318.96 C360.51,318.92 364.18,314.02 369.29,306.12 C370.98,303.51 371.54,301.96 370.69,302.29 C369.81,302.63 368.83,301.92 368.16,300.46 C366.78,297.42 368.43,296.17 370.89,298.40 C371.86,299.28 372.92,300.00 373.24,300.00 C373.56,300.00 375.92,297.06 378.48,293.47 L 383.14 286.95 L 378.37 280.27 L 373.61 273.59 L 372.32 276.55 C371.03,279.50 371.03,279.50 371.18,275.00 C371.33,270.83 370.69,269.60 362.37,258.07 C357.44,251.23 352.87,245.46 352.20,245.23 C351.36,244.95 351.00,246.59 351.00,250.77 C351.00,251.00 351.00,251.23 351.00,251.44 C351.00,252.83 350.99,253.87 351.16,254.88 C351.67,258.09 353.86,261.02 362.96,273.79 C366.52,278.78 369.78,282.64 370.21,282.37 C371.97,281.28 371.49,290.08 369.71,291.50 C366.55,294.04 351.00,316.78 351.00,318.87 ZM 419.00 557.50 C419.00,569.92 419.01,570.00 421.33,570.00 C423.95,570.00 445.58,564.16 454.00,561.17 L 459.50 559.23 L 456.50 558.02 C452.96,556.60 419.86,545.00 419.35,545.00 C419.16,545.00 419.00,550.62 419.00,557.50 ZM 269.00 567.93 C269.85,568.15 270.63,568.36 271.35,568.55 C275.50,569.67 277.68,570.25 278.81,569.42 C280.05,568.51 280.04,565.89 280.01,560.41 C280.00,559.54 280.00,558.60 280.00,557.58 L 280.00 545.16 L 261.26 551.62 C250.95,555.18 242.16,558.44 241.72,558.88 C240.95,559.65 254.36,564.10 269.00,567.93 ZM 200.69 378.35 C201.98,379.65 203.50,378.35 203.82,375.67 C204.17,372.67 205.46,372.20 206.79,374.60 C207.59,376.01 208.30,375.88 213.09,373.47 C216.07,371.97 218.85,370.15 219.28,369.41 C219.70,368.68 220.66,368.32 221.41,368.60 C222.75,369.12 254.47,354.93 256.46,352.93 C257.18,352.20 257.04,352.04 256.00,352.39 C255.18,352.67 243.25,355.20 229.50,358.02 C205.27,362.99 201.37,363.67 201.19,364.90 C201.16,365.13 201.26,365.38 201.38,365.69 C201.43,365.83 201.50,365.98 201.55,366.15 C202.16,368.09 202.08,368.10 198.98,366.49 C195.33,364.60 194.31,365.20 193.40,369.73 L 192.77 372.90 L 197.92 373.58 C202.68,374.22 202.95,374.39 201.53,375.96 C200.69,376.90 200.31,377.97 200.69,378.35 ZM 342.72 584.22 C345.86,587.40 348.91,590.00 349.50,590.00 C350.08,590.00 353.34,587.19 356.75,583.75 L 362.94 577.50 L 356.16 571.35 L 349.37 565.20 L 343.18 571.22 C339.78,574.52 337.00,577.50 337.00,577.84 C337.00,578.17 339.57,581.04 342.72,584.22 ZM 343.22 119.72 L 349.44 126.00 L 355.72 119.78 L 362.00 113.56 L 356.28 107.78 C353.14,104.60 350.11,102.00 349.56,102.00 C349.01,102.00 345.96,104.57 342.78,107.72 L 337.00 113.44 ZM 247.00 401.91 C247.00,402.56 259.65,403.11 259.99,402.48 C261.09,400.43 271.92,366.26 271.69,365.56 C271.32,364.47 247.00,400.28 247.00,401.91 ZM 195.47 354.75 C194.45,359.29 194.49,360.00 195.80,360.00 C196.63,360.00 208.38,357.64 221.90,354.75 L 246.50 349.50 L 231.13 349.22 C220.21,349.03 215.35,349.30 214.31,350.16 C213.16,351.11 212.68,351.11 212.09,350.14 C211.56,349.30 209.00,349.00 203.98,349.20 L 196.64 349.50 ZM 354.29 292.46 C352.21,295.47 350.18,297.94 349.78,297.96 C349.39,297.98 347.21,295.55 344.95,292.55 L 340.84 287.11 L 344.67 281.59 C346.78,278.56 348.95,276.08 349.50,276.08 C350.05,276.08 352.21,278.53 354.29,281.54 L 358.08 287.00 ZM 140.35 391.59 C138.78,393.98 137.00,394.80 137.00,393.13 C137.00,392.66 137.94,391.08 139.08,389.63 C140.62,387.67 140.99,386.21 140.50,383.99 C139.79,380.76 140.76,380.21 143.83,382.12 C145.21,382.99 146.34,382.87 148.76,381.62 C152.99,379.43 153.28,379.55 151.62,382.77 C150.81,384.33 148.40,386.32 146.06,387.35 C143.79,388.35 141.22,390.26 140.35,391.59 ZM 346.75 163.92 C348.99,165.22 349.70,165.23 352.07,163.96 C354.26,162.79 354.70,158.10 352.80,156.20 C352.14,155.54 350.65,155.00 349.50,155.00 C348.35,155.00 346.86,155.54 346.20,156.20 C344.40,158.00 344.74,162.75 346.75,163.92 ZM 362.00 387.77 C362.00,390.80 362.22,391.07 364.25,390.44 C367.70,389.38 372.42,386.84 373.19,385.64 C374.39,383.78 371.90,382.00 368.08,382.00 C363.52,382.00 362.00,383.44 362.00,387.77 ZM 346.36 207.50 C347.05,209.30 351.12,209.48 352.80,207.80 C353.46,207.14 354.00,205.33 354.00,203.78 C354.00,200.21 350.39,198.19 347.13,199.93 C344.95,201.10 344.23,203.00 345.97,203.00 C346.50,203.00 346.68,203.68 346.36,204.50 C346.05,205.32 346.05,206.68 346.36,207.50 ZM 347.15 230.40 C350.99,233.08 354.85,229.54 353.59,224.50 C353.11,222.58 352.31,222.00 350.18,222.00 C348.65,222.00 346.86,222.54 346.20,223.20 C344.31,225.09 344.80,228.74 347.15,230.40 ZM 101.57 357.88 C101.27,358.37 99.70,358.96 98.08,359.20 C95.28,359.61 94.08,358.29 94.01,354.73 C93.98,352.63 99.27,352.05 104.06,353.62 C109.81,355.49 110.47,357.00 105.56,357.00 C103.67,357.00 101.87,357.40 101.57,357.88 ZM 406.80 328.80 C405.10,330.50 404.33,330.31 402.56,327.78 C400.97,325.51 400.39,319.97 401.75,320.03 C403.16,320.09 408.00,324.90 408.00,326.25 C408.00,326.99 407.46,328.14 406.80,328.80 ZM 169.00 462.46 C169.00,463.90 165.93,462.74 164.56,460.78 C162.83,458.31 162.46,454.00 163.98,454.00 C164.84,454.00 169.00,461.02 169.00,462.46 ZM 568.84 398.04 C568.10,398.44 566.04,399.08 564.25,399.46 C561.75,400.00 561.00,399.82 561.00,398.70 C561.00,395.82 563.71,394.64 567.09,396.04 C569.26,396.94 569.78,397.54 568.84,398.04 ZM 345.67 185.33 C346.98,186.65 347.76,185.95 348.38,182.88 C349.45,177.50 349.25,176.80 347.00,178.00 C345.05,179.04 344.18,183.84 345.67,185.33 ZM 350.40 182.90 C349.73,187.09 349.77,187.19 351.85,186.08 C354.16,184.84 354.89,179.67 352.93,178.46 C351.44,177.54 351.18,177.99 350.40,182.90 ZM 127.45 388.25 C126.50,391.41 125.90,391.74 122.50,390.98 L 119.50 390.32 L 122.15 389.22 C123.61,388.62 125.10,387.65 125.46,387.06 C126.68,385.08 128.15,385.96 127.45,388.25 ZM 347.64 288.50 C347.95,289.33 348.79,290.00 349.50,290.00 C350.21,290.00 351.05,289.33 351.36,288.50 C352.13,286.50 351.10,284.00 349.50,284.00 C347.90,284.00 346.87,286.50 347.64,288.50 ZM 544.00 422.38 C544.00,423.80 542.13,422.84 540.83,420.75 C538.65,417.26 536.96,413.00 537.77,413.04 C538.53,413.07 544.00,421.28 544.00,422.38 ZM 380.39 423.42 C379.56,425.59 378.39,425.40 376.56,422.78 C374.72,420.16 374.47,418.07 376.20,419.80 C376.86,420.46 378.21,421.00 379.20,421.00 C381.19,421.00 381.27,421.14 380.39,423.42 ZM 351.02 326.75 L 351.04 330.50 L 352.95 328.02 C354.33,326.22 354.57,325.18 353.81,324.27 C351.96,322.04 351.00,322.90 351.02,326.75 ZM 403.00 404.62 C396.93,407.21 395.12,407.69 394.03,407.02 C392.21,405.89 394.06,405.07 399.67,404.48 C402.33,404.21 403.83,404.27 403.00,404.62 ZM 614.03 409.42 C612.75,413.29 611.00,415.08 611.00,412.51 C611.00,410.45 613.98,404.64 614.67,405.34 C614.96,405.63 614.67,407.46 614.03,409.42 ZM 196.00 379.09 C196.00,379.59 196.46,380.00 197.02,380.00 C197.59,380.00 197.30,378.86 196.38,377.46 C194.55,374.67 192.69,374.67 192.15,377.48 C191.88,378.88 192.27,379.16 193.90,378.74 C195.05,378.43 196.00,378.60 196.00,379.09 ZM 583.00 470.00 C583.00,471.33 582.33,472.00 581.00,472.00 C579.67,472.00 579.00,471.33 579.00,470.00 C579.00,468.67 579.67,468.00 581.00,468.00 C582.33,468.00 583.00,468.67 583.00,470.00 ZM 365.82 419.83 C366.02,421.18 365.61,422.00 364.74,422.00 C362.70,422.00 362.15,421.15 362.74,418.90 C363.40,416.38 365.40,416.98 365.82,419.83 ZM 164.23 379.42 C164.81,382.48 163.56,384.91 162.64,382.50 C161.69,380.04 161.86,375.80 162.88,376.43 C163.36,376.73 163.97,378.07 164.23,379.42 ZM 160.76 408.25 C160.29,409.65 156.79,410.46 155.74,409.40 C154.55,408.22 156.02,407.00 158.64,407.00 C160.21,407.00 161.01,407.47 160.76,408.25 ZM 591.97 387.47 C592.64,388.27 593.03,389.37 592.84,389.90 C592.34,391.34 589.00,389.21 589.00,387.45 C589.00,385.59 590.42,385.59 591.97,387.47 ZM 208.00 395.44 C208.00,397.11 206.57,398.24 205.64,397.31 C204.44,396.11 204.99,394.00 206.50,394.00 C207.32,394.00 208.00,394.65 208.00,395.44 ZM 337.98 261.25 C337.98,261.94 337.58,263.11 337.11,263.86 C336.00,265.61 334.77,263.76 335.60,261.59 C336.33,259.70 338.01,259.46 337.98,261.25 ZM 411.55 416.91 C411.18,417.51 410.22,418.00 409.41,418.00 C408.21,418.00 408.15,417.59 409.06,415.89 C409.82,414.46 410.51,414.11 411.21,414.81 C411.77,415.37 411.92,416.31 411.55,416.91 ZM 143.00 429.00 C143.00,429.55 141.54,429.99 139.75,429.98 C137.28,429.97 136.86,429.74 138.00,429.00 C139.97,427.73 143.00,427.73 143.00,429.00 ZM 194.63 411.30 C195.65,412.32 191.41,413.87 190.00,413.00 C188.95,412.35 189.29,411.97 191.35,411.45 C192.86,411.07 194.34,411.00 194.63,411.30 ZM 364.50 363.17 C364.80,363.47 364.63,364.79 364.12,366.10 C363.29,368.26 363.13,368.32 362.47,366.68 C361.76,364.92 363.41,362.08 364.50,363.17 ZM 491.00 368.11 C491.00,369.36 488.26,369.22 487.46,367.93 C487.10,367.35 487.01,366.66 487.26,366.41 C487.95,365.71 491.00,367.09 491.00,368.11 ZM 419.00 402.11 C419.00,403.36 416.26,403.22 415.46,401.93 C415.10,401.35 415.01,400.66 415.26,400.41 C415.95,399.71 419.00,401.09 419.00,402.11 ZM 304.29 571.00 C304.63,572.30 304.32,573.00 303.41,573.00 C302.63,573.00 302.00,572.10 302.00,571.00 C302.00,569.90 302.40,569.00 302.88,569.00 C303.37,569.00 304.00,569.90 304.29,571.00 ZM 553.22 357.82 C554.06,358.66 554.09,359.31 553.33,360.07 C552.58,360.82 552.07,360.64 551.61,359.42 C550.76,357.22 551.69,356.29 553.22,357.82 ZM 333.00 300.88 C333.00,301.98 332.55,303.16 332.00,303.50 C331.45,303.84 331.00,303.22 331.00,302.12 C331.00,301.02 331.45,299.84 332.00,299.50 C332.55,299.16 333.00,299.78 333.00,300.88 ZM 504.00 514.94 C504.00,516.20 502.44,517.11 501.64,516.31 C500.51,515.18 500.95,514.00 502.50,514.00 C503.33,514.00 504.00,514.42 504.00,514.94 ZM 356.00 321.50 C356.00,322.33 356.40,323.00 356.89,323.00 C357.38,323.00 358.05,322.33 358.36,321.50 C358.71,320.59 358.36,320.00 357.47,320.00 C356.66,320.00 356.00,320.67 356.00,321.50 ZM 138.50 359.00 C138.84,359.55 138.44,360.00 137.62,360.00 C136.79,360.00 135.84,359.55 135.50,359.00 C135.16,358.45 135.56,358.00 136.38,358.00 C137.21,358.00 138.16,358.45 138.50,359.00 ZM 588.00 441.50 C588.00,442.33 587.55,443.00 587.00,443.00 C586.45,443.00 586.00,442.33 586.00,441.50 C586.00,440.67 586.45,440.00 587.00,440.00 C587.55,440.00 588.00,440.67 588.00,441.50 ZM 271.00 403.00 C271.00,403.55 270.33,404.00 269.50,404.00 C268.67,404.00 268.00,403.55 268.00,403.00 C268.00,402.45 268.67,402.00 269.50,402.00 C270.33,402.00 271.00,402.45 271.00,403.00 ZM 414.00 427.00 C414.00,427.55 413.33,428.00 412.50,428.00 C411.67,428.00 411.00,427.55 411.00,427.00 C411.00,426.45 411.67,426.00 412.50,426.00 C413.33,426.00 414.00,426.45 414.00,427.00 ZM 143.20 441.80 C144.71,443.31 143.87,444.15 142.00,443.00 C141.21,442.51 140.89,441.78 141.30,441.37 C141.70,440.97 142.56,441.16 143.20,441.80 ZM 103.00 370.00 C103.00,370.55 102.55,371.00 102.00,371.00 C101.45,371.00 101.00,370.55 101.00,370.00 C101.00,369.45 101.45,369.00 102.00,369.00 C102.55,369.00 103.00,369.45 103.00,370.00 Z" fill="rgb(22,23,20)"/>
<path d="M 313.68 382.36 C316.07,384.65 318.69,386.71 321.50,388.48 C324.67,390.47 329.09,392.56 332.98,394.02 C329.92,392.90 326.56,391.44 323.94,390.02 C321.69,388.79 319.49,388.32 317.94,388.72 C315.90,389.24 315.69,389.11 316.68,387.90 C317.55,386.85 317.00,385.72 313.68,382.36 ZM 375.00 479.00 C375.00,479.55 374.55,480.00 374.00,480.00 C373.45,480.00 373.00,479.55 373.00,479.00 C373.00,478.45 373.45,478.00 374.00,478.00 C374.55,478.00 375.00,478.45 375.00,479.00 ZM 297.95 334.89 C299.73,324.56 304.78,315.27 313.13,307.00 C304.91,315.15 299.85,324.44 297.95,334.89 ZM 300.61 362.42 C303.21,369.31 307.18,375.69 312.29,380.97 C307.34,376.06 303.25,369.48 300.61,362.42 ZM 339.92 395.97 C340.13,395.99 340.33,396.00 340.51,396.00 C343.21,396.00 344.61,396.25 345.31,397.62 C344.60,396.25 343.20,396.00 340.46,396.00 C340.30,396.00 340.12,395.99 339.92,395.97 Z" fill="rgb(121,109,77)"/>
<path d="M 381.00 661.16 C312.25,666.51 255.47,655.21 199.96,625.12 C182.55,615.68 158.82,599.89 156.70,596.34 C156.26,595.60 155.36,595.00 154.70,595.00 C154.04,594.99 151.25,592.99 148.50,590.55 C139.28,582.35 127.77,571.52 125.62,569.03 C124.46,567.68 120.69,563.85 117.25,560.53 C113.81,557.21 111.00,554.04 111.00,553.49 C111.00,552.93 110.10,551.92 109.00,551.23 C107.90,550.55 107.00,549.48 107.00,548.86 C107.00,548.24 105.99,546.69 104.75,545.42 C99.43,539.96 93.00,531.58 93.00,530.11 C93.00,529.50 92.55,529.00 92.00,529.00 C91.45,529.00 91.00,528.37 91.00,527.61 C91.00,526.84 90.30,525.94 89.44,525.61 C88.58,525.28 88.12,524.61 88.43,524.11 C88.74,523.62 88.29,522.94 87.43,522.61 C86.57,522.28 86.12,521.62 86.41,521.14 C86.71,520.66 86.06,519.46 84.98,518.48 C83.89,517.49 83.00,516.08 83.00,515.35 C83.00,514.61 82.56,514.00 82.02,514.00 C81.48,514.00 80.76,512.88 80.41,511.50 C80.07,510.12 79.36,509.00 78.83,509.00 C78.31,509.00 78.16,508.55 78.50,508.00 C78.84,507.45 78.64,507.00 78.06,507.00 C77.48,507.00 77.00,506.39 77.00,505.65 C77.00,504.91 76.11,503.28 75.02,502.02 C73.93,500.77 73.24,499.42 73.49,499.02 C73.73,498.63 73.07,497.38 72.03,496.26 C70.98,495.13 70.39,493.94 70.73,493.61 C71.06,493.27 70.78,493.00 70.11,493.00 C69.43,493.00 69.16,492.55 69.50,492.00 C69.84,491.45 69.61,491.00 69.00,491.00 C68.39,491.00 68.16,490.55 68.50,490.00 C68.84,489.45 68.61,489.00 68.00,489.00 C67.39,489.00 67.16,488.55 67.50,488.00 C67.84,487.45 67.61,487.00 67.00,487.00 C66.39,487.00 66.16,486.55 66.50,486.00 C66.84,485.45 66.57,485.00 65.89,485.00 C65.22,485.00 64.96,484.71 65.32,484.35 C65.68,483.99 64.60,481.29 62.91,478.35 C61.23,475.41 60.12,473.00 60.45,473.00 C60.78,473.00 60.40,471.99 59.60,470.75 C58.81,469.51 58.01,467.60 57.83,466.50 C57.65,465.40 57.20,464.27 56.84,464.00 C55.89,463.27 47.96,440.00 48.66,440.00 C48.98,440.00 48.80,439.44 48.25,438.75 C47.43,437.71 45.88,432.29 44.58,425.87 C44.43,425.12 44.03,423.83 43.70,423.00 C43.00,421.24 39.26,403.19 39.14,401.00 C39.10,400.17 38.59,397.02 38.02,394.00 C36.23,384.53 35.55,372.25 35.53,349.50 C35.51,316.73 37.13,301.55 43.51,274.42 C49.50,248.92 61.22,218.89 74.27,195.55 C80.62,184.20 91.09,168.00 92.09,168.00 C92.59,168.00 93.00,167.32 93.00,166.50 C93.00,165.68 93.45,165.00 94.00,165.00 C94.55,165.00 95.00,164.31 95.00,163.47 C95.00,162.63 95.68,161.68 96.50,161.36 C97.32,161.05 98.00,160.21 98.00,159.50 C98.00,158.79 98.68,157.95 99.50,157.64 C100.32,157.32 101.00,156.39 101.00,155.57 C101.00,154.74 101.90,153.59 103.00,153.00 C104.10,152.41 105.00,151.38 105.00,150.70 C105.00,150.03 106.35,148.36 108.00,147.00 C109.65,145.64 111.00,144.07 111.00,143.51 C111.00,142.95 116.89,136.64 124.08,129.50 C131.28,122.35 138.77,114.81 140.74,112.75 C142.71,110.69 144.89,109.00 145.59,109.00 C146.28,109.00 147.74,107.88 148.82,106.50 C149.90,105.12 151.23,104.00 151.77,104.00 C152.31,104.00 153.37,103.13 154.13,102.06 C155.90,99.55 177.87,84.00 179.65,84.00 C180.39,84.00 181.00,83.63 181.00,83.17 C181.00,80.42 222.37,59.80 242.49,52.51 C256.44,47.47 280.02,40.69 280.83,41.49 C281.10,41.76 281.91,41.49 282.65,40.88 C283.38,40.27 284.64,40.03 285.46,40.34 C286.27,40.66 287.20,40.49 287.52,39.97 C287.84,39.45 289.09,39.02 290.30,39.01 C294.29,38.98 297.48,38.50 298.65,37.75 C299.28,37.34 300.86,37.00 302.15,36.99 C303.44,36.98 306.30,36.76 308.50,36.50 C320.78,35.02 327.38,34.68 345.50,34.60 C381.79,34.42 398.49,36.31 428.62,44.00 C466.16,53.58 500.71,70.11 537.00,95.87 C550.38,105.36 590.32,144.96 600.67,159.00 C625.12,192.16 642.08,226.71 652.46,264.54 C677.94,357.44 659.94,456.03 603.31,533.75 C592.61,548.44 591.34,549.88 571.63,569.84 C553.16,588.54 541.47,598.32 523.01,610.53 C480.76,638.46 427.21,657.55 381.00,661.16 ZM 380.50 659.04 C465.23,650.01 540.58,608.78 593.49,542.50 C631.03,495.47 653.51,440.31 660.12,379.00 C661.60,365.28 661.56,330.29 660.06,317.12 C659.23,309.85 659.19,306.41 659.92,305.68 C660.66,304.94 660.55,304.16 659.58,303.06 C658.81,302.20 657.44,297.45 656.53,292.50 C653.08,273.78 646.98,252.60 638.99,231.60 C634.45,219.67 618.87,190.13 610.49,177.55 C566.36,111.36 503.60,66.15 428.50,46.47 C401.27,39.34 379.97,36.72 349.50,36.77 C298.33,36.84 254.72,47.08 209.70,69.59 C124.02,112.44 61.91,193.64 43.47,286.91 C35.69,326.25 35.55,370.06 43.09,408.00 C52.60,455.87 72.37,499.60 101.84,538.00 C118.25,559.39 142.31,583.04 164.00,599.13 C195.81,622.72 234.46,641.03 273.31,650.93 C298.91,657.44 338.22,661.95 357.75,660.60 C364.39,660.14 367.00,660.28 367.00,661.10 C367.00,661.89 367.39,661.93 368.25,661.23 C368.94,660.67 374.45,659.68 380.50,659.04 ZM 319.00 650.92 C264.05,644.88 213.19,624.87 167.00,591.12 C162.81,588.06 145.45,573.31 138.63,567.00 C131.51,560.43 112.72,538.90 105.02,528.50 C76.50,489.98 57.64,445.42 49.59,397.50 C44.18,365.34 44.76,323.36 51.04,291.00 C55.72,266.93 68.66,227.00 71.79,227.00 C74.67,227.00 74.59,229.53 71.48,236.91 C63.64,255.50 56.68,281.34 52.87,306.00 C50.94,318.49 50.63,324.38 50.65,348.50 C50.68,377.25 51.10,382.11 55.53,405.61 C73.62,501.50 142.03,585.89 232.50,623.90 C273.74,641.23 315.20,649.06 358.50,647.71 C435.07,645.30 506.29,614.47 560.85,560.10 C619.37,501.78 651.40,421.35 648.68,339.50 C645.41,240.53 596.22,152.78 513.01,97.47 C462.82,64.10 403.11,47.44 340.50,49.33 C289.01,50.88 241.23,64.61 197.58,90.42 C193.39,92.90 189.30,94.67 188.48,94.35 C187.57,94.01 187.00,94.37 187.00,95.31 C187.00,96.15 183.29,99.41 178.75,102.56 C151.26,121.66 126.71,145.71 106.80,173.07 C97.22,186.22 90.63,197.08 82.41,213.25 C78.85,220.26 75.58,226.00 75.16,226.00 C74.74,226.00 73.89,225.49 73.26,224.86 C72.41,224.01 73.35,221.26 77.02,213.96 C101.28,165.61 137.21,124.87 181.50,95.49 C221.96,68.65 267.03,52.13 315.00,46.57 C332.17,44.58 366.15,44.53 383.50,46.48 C444.67,53.34 500.87,77.88 547.51,118.11 C603.21,166.15 638.47,230.13 650.24,304.50 C652.17,316.67 652.45,322.28 652.41,347.50 C652.38,363.52 651.86,379.86 651.24,384.00 C648.28,403.76 646.81,411.52 643.63,424.00 C634.01,461.86 613.72,503.13 589.32,534.50 C546.89,589.06 486.98,627.86 420.50,643.85 C396.18,649.70 383.22,651.20 354.00,651.54 C339.42,651.71 323.67,651.43 319.00,650.92 ZM 220.59 535.50 C221.00,533.85 227.13,515.40 234.20,494.50 C241.28,473.60 250.48,446.15 254.64,433.50 C258.81,420.85 262.79,409.15 263.49,407.50 C264.19,405.85 266.30,399.55 268.17,393.50 C271.49,382.82 271.67,382.51 274.29,382.82 C277.47,383.20 278.01,381.08 274.94,380.27 C273.59,379.92 273.09,379.21 273.48,378.18 C273.81,377.33 275.27,372.66 276.72,367.82 C278.17,362.97 279.67,359.00 280.05,359.00 C280.43,359.00 281.04,360.86 281.41,363.14 C283.04,373.35 293.62,390.36 303.22,398.21 C309.92,403.69 322.21,411.00 324.72,411.00 C326.35,411.00 327.00,411.58 327.00,413.03 C327.00,415.49 329.51,416.65 331.41,415.07 C332.91,413.83 346.00,414.67 346.00,416.00 C346.00,416.40 323.61,438.27 296.25,464.59 C268.89,490.91 240.50,518.31 233.17,525.47 C222.04,536.34 219.96,538.00 220.59,535.50 ZM 458.00 517.29 C400.06,461.77 389.28,451.38 375.04,437.29 C366.53,428.88 359.30,422.00 358.97,422.00 C358.23,422.00 353.00,416.60 353.00,415.83 C353.00,415.53 355.59,415.04 358.75,414.75 C384.66,412.38 411.02,390.22 417.49,365.37 C418.31,362.25 419.13,359.54 419.32,359.35 C420.00,358.67 445.18,434.90 444.59,435.86 C444.26,436.39 444.43,436.98 444.97,437.16 C446.00,437.52 479.23,534.84 478.77,536.16 C478.62,536.59 469.27,528.09 458.00,517.29 ZM 508.17 475.74 C492.68,452.50 480.00,432.96 480.00,432.30 C480.00,431.64 479.38,430.74 478.63,430.30 C477.88,429.86 472.70,422.52 467.12,414.00 C461.54,405.48 456.61,398.04 456.16,397.47 C452.59,393.00 431.15,360.52 431.52,360.15 C431.78,359.89 432.78,360.35 433.74,361.18 C434.71,362.01 442.25,368.29 450.50,375.13 C495.66,412.61 510.48,425.44 510.17,426.80 C509.97,427.73 510.38,428.07 511.27,427.73 C512.14,427.39 520.18,433.40 531.86,443.12 C549.67,457.93 550.98,459.25 550.44,461.78 C549.89,464.36 549.95,464.40 551.40,462.61 C552.86,460.80 553.46,461.16 564.46,470.45 C570.81,475.80 576.00,480.40 576.00,480.66 C576.00,483.03 551.07,506.96 539.92,515.30 L 536.34 517.98 ZM 153.50 510.37 C143.35,501.91 132.73,491.73 126.98,484.92 L 123.10 480.34 L 129.80 474.84 C133.49,471.82 145.27,461.98 156.00,452.97 C166.73,443.97 183.82,429.66 194.00,421.16 C204.18,412.67 213.25,405.07 214.17,404.28 C215.46,403.17 216.30,403.09 217.92,403.96 C219.58,404.85 220.00,404.78 220.00,403.62 C220.00,402.82 219.48,401.99 218.84,401.78 C218.20,401.57 227.31,393.30 239.09,383.41 C262.96,363.35 268.02,359.36 267.96,360.63 C267.93,361.11 261.92,370.27 254.60,381.00 L 241.29 400.50 L 236.20 400.50 C231.00,400.50 228.22,401.93 229.48,403.96 C229.94,404.71 231.72,404.86 234.71,404.42 C238.43,403.86 239.09,403.98 238.37,405.12 C233.31,413.13 229.78,418.00 229.04,418.00 C228.54,418.00 228.00,418.79 227.82,419.75 C227.52,421.37 166.16,514.04 163.63,516.68 C162.77,517.58 160.34,516.06 153.50,510.37 ZM 487.46 545.75 C483.64,535.77 427.11,365.56 427.48,365.19 C427.61,365.06 427.71,364.94 427.83,364.91 C428.33,364.77 429.23,366.14 434.68,374.42 L 434.68 374.42 L 435.36 375.47 C440.02,382.54 441.57,385.66 440.71,386.22 C439.88,386.75 440.20,387.19 441.73,387.61 C443.31,388.05 456.84,407.47 487.98,454.07 C512.19,490.28 532.00,520.30 532.00,520.77 C532.00,522.72 491.85,547.00 488.63,547.00 C488.25,547.00 487.72,546.44 487.46,545.75 ZM 568.00 467.08 C558.20,458.79 557.34,457.76 555.03,451.60 C553.68,447.97 552.24,445.00 551.84,445.00 C550.37,445.00 550.01,446.90 551.00,449.49 C551.80,451.61 551.72,452.08 550.61,451.82 C549.84,451.65 540.90,444.52 530.74,436.00 C518.53,425.75 512.46,420.02 512.81,419.08 C513.19,418.06 512.85,417.84 511.63,418.31 C510.47,418.76 508.58,417.76 505.71,415.18 C503.39,413.10 499.88,410.07 497.89,408.45 C475.56,390.22 436.02,356.49 436.71,356.26 C437.96,355.85 467.08,369.64 467.10,370.66 C467.11,371.12 467.83,371.43 468.69,371.34 C469.56,371.25 498.45,384.23 532.89,400.18 C567.32,416.13 597.21,429.87 599.31,430.72 C601.91,431.78 602.94,432.72 602.55,433.72 C602.24,434.53 601.73,436.38 601.42,437.84 L 600.84 440.50 L 602.90 438.00 C604.03,436.62 604.97,435.16 604.98,434.75 C604.99,434.34 605.46,434.00 606.01,434.00 C607.20,434.00 602.45,443.69 596.71,452.99 C591.08,462.10 580.70,475.96 579.50,475.96 C578.95,475.96 573.78,471.97 568.00,467.08 ZM 113.66 468.75 C104.18,455.93 92.06,435.60 93.21,434.46 C93.52,434.14 110.43,426.27 157.00,404.75 C167.73,399.80 178.92,394.66 181.89,393.33 L 187.27 390.91 L 186.66 394.70 C186.33,396.79 185.76,399.96 185.40,401.75 C185.03,403.62 185.16,405.00 185.72,405.00 C186.91,405.00 188.99,398.29 189.02,394.38 C189.02,392.80 189.36,390.99 189.77,390.37 C191.03,388.43 210.56,380.00 213.79,380.00 C215.84,380.00 217.05,379.42 217.43,378.25 C217.97,376.55 261.84,355.50 262.81,356.48 C263.05,356.72 261.75,358.17 259.92,359.71 C258.08,361.24 251.92,366.44 246.22,371.25 C240.53,376.06 235.48,380.00 235.00,380.00 C234.52,380.00 233.84,379.07 233.48,377.94 C232.86,375.98 229.38,374.00 226.56,374.00 C224.73,374.00 224.87,379.11 226.76,381.25 C227.61,382.21 229.17,383.00 230.23,383.00 C231.38,383.00 222.07,391.44 206.82,404.19 C192.90,415.85 169.41,435.53 154.63,447.94 C125.15,472.69 121.04,476.00 119.83,476.00 C119.38,476.00 116.60,472.74 113.66,468.75 ZM 200.45 541.61 C189.17,535.60 173.93,526.27 169.72,522.79 L 166.94 520.50 L 186.01 492.00 C196.49,476.33 206.18,462.58 207.53,461.46 C208.89,460.34 210.00,458.68 210.00,457.78 C210.00,454.94 243.84,405.54 246.03,405.18 C247.41,404.96 248.00,405.43 248.00,406.77 C248.00,408.49 251.58,411.00 254.05,411.00 C254.57,411.00 255.00,409.65 255.00,408.00 C255.00,405.62 255.43,405.00 257.11,405.00 C258.36,405.00 259.04,405.51 258.77,406.25 C258.53,406.94 247.80,438.88 234.92,477.24 C222.04,515.60 211.27,546.98 211.00,546.98 C210.73,546.97 205.98,544.56 200.45,541.61 ZM 607.16 429.10 C606.43,428.65 605.84,427.88 605.85,427.39 C605.86,426.90 605.03,426.60 604.01,426.73 C602.98,426.85 598.77,425.41 594.65,423.54 C587.93,420.47 587.22,419.88 587.73,417.81 C588.28,415.62 588.21,415.59 586.41,417.13 C584.61,418.67 582.94,418.05 557.25,406.19 C541.89,399.10 530.00,393.04 530.00,392.31 C530.00,391.52 528.81,391.00 527.03,391.00 C522.75,391.00 515.00,387.01 515.00,384.80 C515.00,382.92 512.41,382.26 511.83,383.99 C511.56,384.80 452.54,358.31 445.50,354.22 C443.73,353.20 443.70,353.06 445.27,353.03 C447.29,353.00 465.73,356.79 468.00,357.71 C468.83,358.04 469.81,358.25 470.19,358.18 C470.78,358.06 512.49,366.75 519.84,368.52 C521.57,368.94 522.00,369.53 521.48,370.79 C520.02,374.32 519.80,376.00 520.79,376.00 C521.35,376.00 522.27,374.65 522.85,373.00 C524.08,369.47 524.68,369.41 535.75,371.70 C541.25,372.84 544.00,373.87 544.00,374.78 C544.00,375.78 544.80,375.98 546.93,375.51 C549.76,374.89 557.46,376.28 588.94,383.09 C596.34,384.69 602.51,386.00 602.66,386.00 C602.81,386.00 602.68,386.67 602.36,387.50 C602.01,388.43 602.37,389.00 603.31,389.00 C604.15,389.00 605.02,388.45 605.24,387.79 C605.55,386.86 607.50,386.97 613.47,388.27 C617.78,389.20 621.53,390.20 621.81,390.48 C623.05,391.71 611.65,426.75 609.23,429.17 C608.82,429.58 607.89,429.55 607.16,429.10 ZM 87.19 422.75 C83.14,412.95 78.00,396.22 78.00,392.81 C78.00,390.75 78.58,389.91 80.25,389.52 C91.95,386.85 173.13,370.00 174.31,370.00 C175.20,370.00 176.12,371.26 176.50,373.00 C177.07,375.61 177.60,376.00 180.53,376.00 L 183.90 376.00 L 182.39 372.39 C181.56,370.41 181.02,368.67 181.19,368.54 C181.85,368.02 190.45,366.12 190.76,366.43 C190.94,366.60 190.62,369.62 190.05,373.13 C188.64,381.81 188.67,383.73 190.20,382.20 C191.60,380.80 193.00,380.63 193.00,381.85 C193.00,383.30 169.26,394.04 167.53,393.37 C166.55,393.00 166.03,393.22 166.21,393.95 C166.37,394.61 163.35,396.53 159.50,398.20 C155.65,399.88 150.02,402.50 147.00,404.02 C140.80,407.15 91.17,430.00 90.57,430.00 C90.36,430.00 88.84,426.74 87.19,422.75 ZM 604.21 381.54 C595.80,379.73 588.62,377.96 588.27,377.61 C587.92,377.25 588.17,376.43 588.82,375.78 C589.73,374.87 590.28,374.88 591.20,375.80 C593.40,378.00 594.07,377.04 592.27,374.25 C590.05,370.80 586.92,368.08 585.13,368.03 C584.07,368.01 584.02,368.32 584.90,369.38 C585.70,370.34 585.75,371.54 585.05,373.38 C584.28,375.40 583.37,376.00 581.05,376.00 C575.85,376.00 562.55,372.68 561.27,371.06 C560.35,369.90 559.84,369.80 559.24,370.70 C558.63,371.61 557.07,371.56 552.47,370.47 C549.19,369.70 541.10,367.94 534.50,366.58 C499.72,359.39 455.76,350.03 454.50,349.54 C454.50,349.54 454.49,349.54 454.49,349.53 C454.49,349.32 492.94,349.13 540.39,349.10 L 627.29 349.05 L 626.74 358.77 C626.43,364.12 625.59,372.21 624.87,376.75 C623.72,383.99 623.31,384.99 621.53,384.91 C620.41,384.87 612.62,383.35 604.21,381.54 ZM 75.62 383.25 C74.84,380.58 73.16,366.49 72.52,357.25 L 71.95 349.00 L 114.62 349.00 C154.08,349.00 157.38,349.13 158.61,350.75 C159.87,352.41 159.94,352.41 159.97,350.71 C160.00,349.05 161.27,348.93 176.92,349.07 L 193.83 349.23 L 193.28 354.87 C192.97,357.97 192.64,360.61 192.54,360.73 C192.28,361.07 159.71,368.00 158.37,368.00 C157.74,368.00 157.00,367.09 156.71,365.98 C156.40,364.80 154.28,363.13 151.59,361.94 C149.07,360.82 147.00,359.55 147.00,359.11 C147.00,358.67 147.94,357.46 149.09,356.42 C150.24,355.37 151.61,353.73 152.13,352.76 C152.94,351.25 152.62,351.00 149.91,351.00 C146.93,351.00 146.78,351.17 147.35,354.00 C147.78,356.16 147.57,357.00 146.58,357.00 C145.83,357.00 144.97,357.64 144.67,358.42 C144.37,359.20 143.08,359.99 141.81,360.17 C140.20,360.40 141.63,361.21 146.48,362.82 C152.80,364.92 154.94,366.26 154.98,368.15 C154.99,368.51 152.86,369.29 150.25,369.89 C137.88,372.73 78.88,385.00 77.59,385.00 C76.79,385.00 75.90,384.21 75.62,383.25 ZM 223.14 552.77 L 215.78 549.63 L 222.64 543.06 C226.42,539.45 242.12,524.35 257.53,509.50 C310.35,458.61 334.51,435.41 340.25,430.06 L 346.00 424.71 L 346.00 445.70 L 339.75 451.52 C336.31,454.73 326.52,464.16 318.00,472.48 C293.76,496.15 231.84,555.48 231.13,555.70 C230.79,555.82 227.19,554.50 223.14,552.77 ZM 456.69 545.23 C450.53,539.30 432.67,522.10 417.00,507.02 C401.33,491.94 382.65,473.91 375.50,466.95 C368.35,459.99 360.36,452.37 357.75,450.02 L 353.00 445.75 L 353.00 424.81 L 357.82 429.16 C367.83,438.16 482.00,548.45 482.00,549.10 C482.00,549.48 481.44,550.02 480.75,550.30 C480.06,550.58 476.88,551.99 473.69,553.42 L 467.88 556.03 ZM 332.73 593.81 L 316.01 577.82 L 331.63 562.66 C340.22,554.32 347.85,547.15 348.60,546.71 C349.55,546.16 354.97,550.70 366.48,561.67 L 383.00 577.42 L 378.75 581.80 C376.41,584.20 368.86,591.48 361.98,597.98 L 349.46 609.80 ZM 340.50 409.54 C339.95,409.38 337.70,408.76 335.50,408.16 C325.88,405.56 324.00,404.80 324.65,403.75 C325.09,403.04 324.71,402.90 323.55,403.34 C321.18,404.25 313.07,399.52 305.71,392.94 C288.00,377.12 280.11,351.51 285.93,328.76 C288.21,319.88 292.45,311.00 294.42,311.00 C295.29,311.00 295.63,310.29 295.32,309.11 C294.96,307.73 297.02,304.97 302.78,299.11 C307.15,294.65 311.38,291.00 312.17,291.00 C312.97,291.00 315.07,293.06 316.84,295.57 L 320.06 300.15 L 313.13 307.00 C304.78,315.27 299.73,324.56 297.95,334.89 L 297.95 334.89 C297.94,334.94 297.93,334.99 297.92,335.04 C296.28,344.22 297.35,353.73 300.61,362.42 C303.25,369.48 307.34,376.06 312.29,380.97 L 312.29 380.97 C312.74,381.44 313.21,381.91 313.68,382.36 C317.00,385.72 317.55,386.85 316.68,387.90 C315.69,389.11 315.90,389.24 317.94,388.72 C319.49,388.32 321.69,388.79 323.94,390.02 C326.56,391.44 329.92,392.90 332.98,394.02 C335.78,395.08 338.32,395.81 339.92,395.97 C340.12,395.99 340.30,396.00 340.46,396.00 C343.20,396.00 344.60,396.25 345.31,397.62 L 345.31 397.62 C345.88,398.73 346.00,400.57 346.00,403.61 C346.00,409.59 345.86,409.99 343.75,409.92 C342.51,409.88 341.05,409.71 340.50,409.54 ZM 353.00 403.59 C353.00,397.72 353.21,397.00 354.95,397.00 C356.02,397.00 360.53,395.85 364.96,394.45 C373.43,391.78 375.00,391.87 375.00,395.06 C375.00,396.17 375.68,397.00 376.59,397.00 C377.87,397.00 378.05,396.27 377.54,393.22 C376.93,389.62 377.11,389.29 381.55,385.97 C399.72,372.42 406.96,345.40 398.02,324.55 C396.66,321.37 396.46,319.94 397.28,319.12 C398.11,318.29 397.97,318.00 396.79,318.00 C395.90,318.00 393.52,315.76 391.51,313.01 C389.50,310.27 385.87,306.33 383.45,304.26 L 379.05 300.50 L 382.14 295.75 C383.85,293.14 385.70,291.00 386.27,291.00 C386.84,291.00 388.80,292.14 390.62,293.52 C393.73,295.90 393.91,296.36 393.66,301.52 C393.40,306.86 394.17,308.60 395.39,305.42 C395.73,304.55 396.01,302.64 396.03,301.17 C396.06,298.58 396.18,298.64 399.98,303.00 C404.35,308.01 410.14,318.87 412.51,326.50 C415.06,334.70 415.51,347.38 413.60,356.82 C411.71,366.11 410.14,370.21 408.79,369.37 C407.17,368.37 405.11,372.20 406.26,374.04 C407.06,375.32 406.39,377.01 403.22,381.67 C393.23,396.39 375.95,407.07 358.25,409.47 L 353.00 410.19 ZM 433.83 544.19 L 418.17 538.50 L 385.58 507.09 L 353.00 475.68 L 353.00 465.84 C353.00,460.43 353.34,456.00 353.75,456.00 C354.16,456.00 369.58,470.47 388.00,488.16 C441.35,539.38 452.14,550.00 450.78,549.94 C450.08,549.91 442.45,547.32 433.83,544.19 ZM 248.00 549.62 C248.00,549.42 260.71,536.96 276.25,521.95 C291.79,506.93 310.81,488.54 318.52,481.07 C326.23,473.61 335.57,464.59 339.27,461.03 L 346.00 454.56 L 346.00 475.81 L 279.72 539.50 L 264.61 544.72 C249.76,549.86 248.00,550.38 248.00,549.62 ZM 319.32 605.72 C303.28,590.21 290.25,577.42 290.36,577.30 C290.48,577.18 295.06,577.75 300.54,578.57 L 310.50 580.06 L 323.00 592.29 C329.88,599.01 338.65,607.54 342.51,611.24 L 349.52 617.97 L 369.32 599.02 C384.47,584.52 389.87,579.94 392.31,579.53 C400.94,578.09 408.41,577.08 408.66,577.33 C409.13,577.80 350.82,633.49 349.62,633.71 C349.01,633.83 335.37,621.24 319.32,605.72 ZM 340.50 391.89 C338.30,391.39 334.12,390.02 331.20,388.85 L 325.91 386.73 L 328.01 384.49 C329.81,382.58 329.89,382.17 328.55,381.66 C326.35,380.81 326.63,378.91 329.04,378.28 C330.97,377.77 330.99,377.64 329.38,375.87 C326.76,372.97 328.13,372.83 333.35,375.47 C341.23,379.46 347.89,380.52 356.00,379.07 C359.85,378.38 363.25,377.41 363.56,376.91 C363.87,376.41 366.07,376.00 368.45,376.00 C372.72,376.00 374.87,374.22 373.43,371.88 C373.11,371.36 374.23,369.37 375.92,367.44 C388.33,353.30 387.18,331.72 373.32,318.94 C370.94,316.75 369.00,314.70 369.00,314.39 C369.00,312.96 375.48,305.00 376.65,305.00 C377.37,305.00 380.40,307.45 383.39,310.43 C393.97,321.01 399.48,337.66 397.04,351.67 C395.53,360.38 393.43,365.33 390.77,366.52 C389.44,367.11 387.76,369.59 386.54,372.76 C385.26,376.05 383.13,379.13 380.83,381.01 L 377.16 384.01 L 375.97 380.42 C374.96,377.36 374.47,376.93 372.64,377.54 C371.46,377.94 369.04,378.32 367.26,378.40 C362.22,378.60 359.53,381.95 359.88,387.62 L 360.17 392.29 L 356.08 391.74 C353.84,391.44 351.75,391.60 351.44,392.10 C350.76,393.20 345.86,393.11 340.50,391.89 ZM 302.00 574.47 C301.17,574.31 297.24,573.65 293.25,573.00 C288.05,572.15 286.21,571.48 286.75,570.61 C287.16,569.95 300.55,556.83 316.50,541.45 L 345.50 513.50 L 345.79 527.00 L 346.09 540.50 L 339.79 546.40 C336.33,549.64 328.26,557.40 321.85,563.65 C309.78,575.42 309.00,575.85 302.00,574.47 ZM 371.05 557.38 L 353.00 539.76 L 353.00 526.88 C353.00,519.80 353.27,514.00 353.59,514.00 C353.92,514.00 366.63,526.00 381.84,540.66 C397.05,555.32 410.38,568.14 411.44,569.13 C412.51,570.13 413.14,571.19 412.84,571.50 C412.14,572.19 395.44,574.96 391.80,574.98 C389.63,575.00 385.49,571.48 371.05,557.38 ZM 286.00 541.27 L 315.75 512.75 L 345.50 484.23 L 345.82 494.36 L 346.14 504.50 L 330.82 519.30 C322.40,527.44 308.86,540.43 300.75,548.17 L 286.00 562.23 ZM 353.00 504.72 L 353.00 494.78 C353.00,488.96 353.39,484.97 353.95,485.17 C354.82,485.48 367.50,497.50 400.18,529.00 L 413.14 541.50 L 412.82 551.67 L 412.50 561.85 ZM 338.69 373.03 C331.10,370.06 327.01,366.47 326.93,362.70 C326.88,360.30 326.68,359.96 326.13,361.35 C325.52,362.90 325.22,362.97 324.24,361.79 C321.05,357.95 319.04,351.25 319.02,344.41 C319.00,338.35 319.48,336.38 322.25,330.95 C324.04,327.45 325.95,324.45 326.50,324.29 C327.14,324.10 327.38,328.15 327.16,335.50 C326.96,342.52 327.21,347.00 327.80,347.00 C328.67,347.00 330.60,333.91 331.25,323.58 C331.39,321.42 331.99,319.49 332.60,319.29 C333.20,319.10 336.92,323.28 340.87,328.60 L 348.04 338.26 L 347.93 356.63 C347.92,357.61 347.92,358.54 347.91,359.42 C347.86,369.82 347.84,373.94 346.10,374.89 C344.95,375.51 343.08,374.76 339.96,373.53 C339.56,373.37 339.14,373.20 338.69,373.03 ZM 485.77 261.20 C482.04,254.21 480.35,252.06 477.54,250.72 C475.59,249.79 474.00,248.63 474.00,248.14 C474.00,247.65 472.73,247.00 471.19,246.69 C469.64,246.38 467.33,245.28 466.06,244.25 L 463.73 242.37 L 472.52 237.43 C481.12,232.61 481.40,232.33 485.62,224.51 C487.99,220.12 490.31,216.40 490.78,216.24 C491.24,216.09 493.65,219.68 496.12,224.23 C500.60,232.45 500.67,232.53 509.88,237.64 L 519.14 242.79 L 509.69 247.90 C502.48,251.80 499.95,253.72 499.00,256.00 C497.76,258.98 495.68,259.91 494.50,258.00 C494.16,257.45 492.68,257.00 491.22,257.00 L 488.55 257.00 L 490.78 258.56 C492.50,259.76 492.79,260.53 492.05,261.91 C491.42,263.08 491.46,264.06 492.15,264.75 C493.22,265.82 492.44,270.00 491.17,270.00 C490.79,270.00 488.36,266.04 485.77,261.20 ZM 202.88 265.25 C201.44,262.64 200.46,259.94 200.71,259.25 C200.96,258.56 200.67,258.00 200.06,258.00 C199.45,258.00 198.43,256.85 197.80,255.45 C197.05,253.82 193.64,251.28 188.33,248.38 C183.76,245.89 179.79,243.47 179.51,243.01 C179.22,242.55 182.79,240.10 187.43,237.57 L 195.87 232.96 L 200.82 223.84 L 205.77 214.71 L 209.80 222.10 C212.02,226.17 214.65,230.62 215.66,232.00 C216.66,233.38 217.38,234.84 217.24,235.25 C217.11,235.66 218.05,236.00 219.32,236.00 C221.72,236.00 233.00,241.63 232.99,242.83 C232.99,243.20 229.13,245.52 224.42,248.00 C217.48,251.64 215.47,253.24 213.85,256.36 C211.88,260.16 211.82,260.19 210.37,258.11 C208.85,255.94 206.00,255.22 206.00,257.00 C206.00,257.55 206.95,258.95 208.10,260.10 C210.16,262.16 210.17,262.30 208.45,266.10 C207.49,268.25 206.43,270.00 206.10,270.00 C205.77,270.00 204.32,267.86 202.88,265.25 ZM 351.32 374.39 C351.77,373.90 353.57,373.01 355.32,372.41 C357.07,371.81 358.66,370.50 358.85,369.50 C359.18,367.80 358.97,367.82 355.69,369.76 C353.75,370.90 351.90,371.57 351.58,371.25 C351.26,370.93 351.00,363.46 351.00,354.65 C351.00,339.68 351.15,338.41 353.25,335.32 C354.49,333.50 356.27,332.01 357.22,332.01 C358.28,332.00 358.73,331.46 358.40,330.60 C357.85,329.15 364.53,319.00 366.03,319.00 C367.00,319.00 366.15,325.66 364.86,328.18 C364.39,329.11 364.00,331.02 364.00,332.43 C364.00,333.85 363.44,335.01 362.75,335.03 C358.95,335.13 354.88,344.00 358.64,344.00 C359.43,344.00 361.18,344.73 362.54,345.62 C365.53,347.58 365.97,345.76 363.25,342.66 C361.72,340.91 361.71,340.74 363.13,341.25 C365.22,342.01 367.00,340.22 367.00,337.36 C367.00,336.13 367.45,334.84 368.00,334.50 C368.67,334.09 368.66,333.23 367.97,331.94 C367.30,330.70 367.27,329.37 367.87,328.24 C368.39,327.27 368.58,325.25 368.29,323.74 C367.62,320.26 368.93,320.26 372.20,323.75 C376.88,328.74 379.30,334.92 379.79,343.14 C380.18,349.75 379.91,351.51 377.77,356.14 C375.12,361.86 371.09,367.32 371.03,365.25 C370.99,363.57 367.35,363.65 366.70,365.34 C366.42,366.08 366.57,367.30 367.04,368.06 C368.02,369.65 366.48,370.96 363.61,370.98 C362.57,370.99 361.21,371.70 360.58,372.57 C359.95,373.43 357.42,374.39 354.96,374.70 C352.39,375.03 350.85,374.90 351.32,374.39 ZM 319.17 381.68 C317.96,380.40 317.29,379.05 317.66,378.68 C318.03,378.30 317.63,378.00 316.77,378.00 C314.40,378.00 309.06,371.35 305.76,364.30 C299.51,350.95 299.84,336.59 306.70,322.87 C310.22,315.84 319.63,305.00 322.22,305.00 C323.38,305.00 330.00,313.08 330.00,314.49 C330.00,314.73 327.81,316.97 325.13,319.48 C312.29,331.49 310.78,351.39 321.64,365.62 C324.47,369.33 324.98,370.71 324.54,373.55 C324.24,375.45 323.75,378.58 323.45,380.50 C322.81,384.62 322.11,384.81 319.17,381.68 ZM 370.00 578.03 C370.00,577.67 365.51,572.96 360.02,567.57 L 350.05 557.77 L 345.27 561.81 C342.65,564.03 337.85,568.55 334.60,571.85 L 328.71 577.86 L 339.09 587.80 L 349.47 597.73 L 359.73 588.21 C365.38,582.98 370.00,578.40 370.00,578.03 ZM 338.27 318.25 C333.92,312.34 327.11,302.87 323.12,297.22 L 315.87 286.94 L 320.68 280.33 C326.58,272.23 329.40,268.29 339.00,254.66 C343.12,248.81 346.84,244.01 347.25,244.01 C347.66,244.00 348.00,246.85 348.00,250.34 C348.00,256.61 347.91,256.82 340.70,267.09 C336.69,272.82 331.95,279.50 330.17,281.94 C328.39,284.39 327.14,286.92 327.39,287.57 C327.64,288.22 332.33,295.00 337.81,302.64 L 347.78 316.53 L 347.87 322.76 C347.91,326.19 347.55,329.00 347.06,329.00 C346.57,329.00 342.61,324.16 338.27,318.25 ZM 342.41 300.30 C338.61,294.95 335.21,289.28 334.86,287.70 C334.31,285.23 335.28,283.34 341.79,274.32 L 349.36 263.83 L 351.17 266.16 C352.17,267.45 354.22,270.30 355.73,272.50 C357.24,274.70 360.20,278.84 362.32,281.71 C364.46,284.60 365.86,287.42 365.46,288.06 C364.94,288.90 364.53,288.86 363.93,287.89 C363.48,287.16 362.80,286.87 362.41,287.25 C362.03,287.64 362.19,288.53 362.77,289.23 C363.55,290.17 362.02,292.93 356.81,300.00 C352.95,305.23 349.69,309.62 349.56,309.76 C349.43,309.90 346.21,305.64 342.41,300.30 ZM 351.00 318.87 C351.00,316.78 366.55,294.04 369.71,291.50 C371.49,290.08 371.97,281.28 370.21,282.37 C369.78,282.64 366.52,278.78 362.96,273.79 C353.86,261.02 351.67,258.09 351.16,254.88 C350.99,253.87 351.00,252.83 351.00,251.44 C351.00,251.23 351.00,251.00 351.00,250.77 C351.00,246.59 351.36,244.95 352.20,245.23 C352.87,245.46 357.44,251.23 362.37,258.07 C370.69,269.60 371.33,270.83 371.18,275.00 C371.03,279.50 371.03,279.50 372.32,276.55 L 373.61 273.59 L 378.37 280.27 L 383.14 286.95 L 378.48 293.47 C375.92,297.06 373.56,300.00 373.24,300.00 C372.92,300.00 371.86,299.28 370.89,298.40 C368.43,296.17 366.78,297.42 368.16,300.46 C368.83,301.92 369.81,302.63 370.69,302.29 C371.54,301.96 370.98,303.51 369.29,306.12 C364.18,314.02 360.51,318.92 359.69,318.96 C359.25,318.98 359.16,318.55 359.50,318.00 C359.86,317.42 358.83,317.00 357.03,317.00 C355.20,317.00 353.70,317.61 353.36,318.50 C352.69,320.25 351.00,320.52 351.00,318.87 ZM 419.00 557.50 C419.00,550.62 419.16,545.00 419.35,545.00 C419.86,545.00 452.96,556.60 456.50,558.02 L 459.50 559.23 L 454.00 561.17 C445.58,564.16 423.95,570.00 421.33,570.00 C419.01,570.00 419.00,569.92 419.00,557.50 ZM 269.00 567.93 C254.36,564.10 240.95,559.65 241.72,558.88 C242.16,558.44 250.95,555.18 261.26,551.62 L 280.00 545.16 L 280.00 557.58 C280.00,558.60 280.00,559.54 280.01,560.41 C280.04,565.89 280.05,568.51 278.81,569.42 C277.68,570.25 275.50,569.67 271.35,568.55 C270.63,568.36 269.85,568.15 269.00,567.93 ZM 200.69 378.35 C200.31,377.97 200.69,376.90 201.53,375.96 C202.95,374.39 202.68,374.22 197.92,373.58 L 192.77 372.90 L 193.40 369.73 C194.31,365.20 195.33,364.60 198.98,366.49 C202.08,368.10 202.16,368.09 201.55,366.15 C201.50,365.98 201.43,365.83 201.38,365.69 C201.26,365.38 201.16,365.13 201.19,364.90 C201.37,363.67 205.27,362.99 229.50,358.02 C243.25,355.20 255.18,352.67 256.00,352.39 C257.04,352.04 257.18,352.20 256.46,352.93 C254.47,354.93 222.75,369.12 221.41,368.60 C220.66,368.32 219.70,368.68 219.28,369.41 C218.85,370.15 216.07,371.97 213.09,373.47 C208.30,375.88 207.59,376.01 206.79,374.60 C205.46,372.20 204.17,372.67 203.82,375.67 C203.50,378.35 201.98,379.65 200.69,378.35 ZM 342.72 584.22 C339.57,581.04 337.00,578.17 337.00,577.84 C337.00,577.50 339.78,574.52 343.18,571.22 L 349.37 565.20 L 356.16 571.35 L 362.94 577.50 L 356.75 583.75 C353.34,587.19 350.08,590.00 349.50,590.00 C348.91,590.00 345.86,587.40 342.72,584.22 ZM 343.22 119.72 L 337.00 113.44 L 342.78 107.72 C345.96,104.57 349.01,102.00 349.56,102.00 C350.11,102.00 353.14,104.60 356.28,107.78 L 362.00 113.56 L 355.72 119.78 L 349.44 126.00 ZM 247.00 401.91 C247.00,400.28 271.32,364.47 271.69,365.56 C271.92,366.26 261.09,400.43 259.99,402.48 C259.65,403.11 247.00,402.56 247.00,401.91 ZM 195.47 354.75 L 196.64 349.50 L 203.98 349.20 C209.00,349.00 211.56,349.30 212.09,350.14 C212.68,351.11 213.16,351.11 214.31,350.16 C215.35,349.30 220.21,349.03 231.13,349.22 L 246.50 349.50 L 221.90 354.75 C208.38,357.64 196.63,360.00 195.80,360.00 C194.49,360.00 194.45,359.29 195.47,354.75 ZM 354.29 292.46 L 358.08 287.00 L 354.29 281.54 C352.21,278.53 350.05,276.08 349.50,276.08 C348.95,276.08 346.78,278.56 344.67,281.59 L 340.84 287.11 L 344.95 292.55 C347.21,295.55 349.39,297.98 349.78,297.96 C350.18,297.94 352.21,295.47 354.29,292.46 ZM 140.35 391.59 C141.22,390.26 143.79,388.35 146.06,387.35 C148.40,386.32 150.81,384.33 151.62,382.77 C153.28,379.55 152.99,379.43 148.76,381.62 C146.34,382.87 145.21,382.99 143.83,382.12 C140.76,380.21 139.79,380.76 140.50,383.99 C140.99,386.21 140.62,387.67 139.08,389.63 C137.94,391.08 137.00,392.66 137.00,393.13 C137.00,394.80 138.78,393.98 140.35,391.59 ZM 346.75 163.92 C344.74,162.75 344.40,158.00 346.20,156.20 C346.86,155.54 348.35,155.00 349.50,155.00 C350.65,155.00 352.14,155.54 352.80,156.20 C354.70,158.10 354.26,162.79 352.07,163.96 C349.70,165.23 348.99,165.22 346.75,163.92 ZM 362.00 387.77 C362.00,383.44 363.52,382.00 368.08,382.00 C371.90,382.00 374.39,383.78 373.19,385.64 C372.42,386.84 367.70,389.38 364.25,390.44 C362.22,391.07 362.00,390.80 362.00,387.77 ZM 346.36 207.50 C346.05,206.68 346.05,205.32 346.36,204.50 C346.68,203.68 346.50,203.00 345.97,203.00 C344.23,203.00 344.95,201.10 347.13,199.93 C350.39,198.19 354.00,200.21 354.00,203.78 C354.00,205.33 353.46,207.14 352.80,207.80 C351.12,209.48 347.05,209.30 346.36,207.50 ZM 347.15 230.40 C344.80,228.74 344.31,225.09 346.20,223.20 C346.86,222.54 348.65,222.00 350.18,222.00 C352.31,222.00 353.11,222.58 353.59,224.50 C354.85,229.54 350.99,233.08 347.15,230.40 ZM 101.57 357.88 C101.87,357.40 103.67,357.00 105.56,357.00 C110.47,357.00 109.81,355.49 104.06,353.62 C99.27,352.05 93.98,352.63 94.01,354.73 C94.08,358.29 95.28,359.61 98.08,359.20 C99.70,358.96 101.27,358.37 101.57,357.88 ZM 406.80 328.80 C407.46,328.14 408.00,326.99 408.00,326.25 C408.00,324.90 403.16,320.09 401.75,320.03 C400.39,319.97 400.97,325.51 402.56,327.78 C404.33,330.31 405.10,330.50 406.80,328.80 ZM 169.00 462.46 C169.00,461.02 164.84,454.00 163.98,454.00 C162.46,454.00 162.83,458.31 164.56,460.78 C165.93,462.74 169.00,463.90 169.00,462.46 ZM 568.84 398.04 C569.78,397.54 569.26,396.94 567.09,396.04 C563.71,394.64 561.00,395.82 561.00,398.70 C561.00,399.82 561.75,400.00 564.25,399.46 C566.04,399.08 568.10,398.44 568.84,398.04 ZM 345.67 185.33 C344.18,183.84 345.05,179.04 347.00,178.00 C349.25,176.80 349.45,177.50 348.38,182.88 C347.76,185.95 346.98,186.65 345.67,185.33 ZM 350.40 182.90 C351.18,177.99 351.44,177.54 352.93,178.46 C354.89,179.67 354.16,184.84 351.85,186.08 C349.77,187.19 349.73,187.09 350.40,182.90 ZM 127.45 388.25 C128.15,385.96 126.68,385.08 125.46,387.06 C125.10,387.65 123.61,388.62 122.15,389.22 L 119.50 390.32 L 122.50 390.98 C125.90,391.74 126.50,391.41 127.45,388.25 ZM 347.64 288.50 C346.87,286.50 347.90,284.00 349.50,284.00 C351.10,284.00 352.13,286.50 351.36,288.50 C351.05,289.33 350.21,290.00 349.50,290.00 C348.79,290.00 347.95,289.33 347.64,288.50 ZM 544.00 422.38 C544.00,421.28 538.53,413.07 537.77,413.04 C536.96,413.00 538.65,417.26 540.83,420.75 C542.13,422.84 544.00,423.80 544.00,422.38 ZM 380.39 423.42 C381.27,421.14 381.19,421.00 379.20,421.00 C378.21,421.00 376.86,420.46 376.20,419.80 C374.47,418.07 374.72,420.16 376.56,422.78 C378.39,425.40 379.56,425.59 380.39,423.42 ZM 351.02 326.75 C351.00,322.90 351.96,322.04 353.81,324.27 C354.57,325.18 354.33,326.22 352.95,328.02 L 351.04 330.50 ZM 403.00 404.62 C403.83,404.27 402.33,404.21 399.67,404.48 C394.06,405.07 392.21,405.89 394.03,407.02 C395.12,407.69 396.93,407.21 403.00,404.62 ZM 614.03 409.42 C614.67,407.46 614.96,405.63 614.67,405.34 C613.98,404.64 611.00,410.45 611.00,412.51 C611.00,415.08 612.75,413.29 614.03,409.42 ZM 196.00 379.09 C196.00,378.60 195.05,378.43 193.90,378.74 C192.27,379.16 191.88,378.88 192.15,377.48 C192.69,374.67 194.55,374.67 196.38,377.46 C197.30,378.86 197.59,380.00 197.02,380.00 C196.46,380.00 196.00,379.59 196.00,379.09 ZM 583.00 470.00 C583.00,468.67 582.33,468.00 581.00,468.00 C579.67,468.00 579.00,468.67 579.00,470.00 C579.00,471.33 579.67,472.00 581.00,472.00 C582.33,472.00 583.00,471.33 583.00,470.00 ZM 365.82 419.83 C365.40,416.98 363.40,416.38 362.74,418.90 C362.15,421.15 362.70,422.00 364.74,422.00 C365.61,422.00 366.02,421.18 365.82,419.83 ZM 164.23 379.42 C163.97,378.07 163.36,376.73 162.88,376.43 C161.86,375.80 161.69,380.04 162.64,382.50 C163.56,384.91 164.81,382.48 164.23,379.42 ZM 160.76 408.25 C161.01,407.47 160.21,407.00 158.64,407.00 C156.02,407.00 154.55,408.22 155.74,409.40 C156.79,410.46 160.29,409.65 160.76,408.25 ZM 591.97 387.47 C590.42,385.59 589.00,385.59 589.00,387.45 C589.00,389.21 592.34,391.34 592.84,389.90 C593.03,389.37 592.64,388.27 591.97,387.47 ZM 208.00 395.44 C208.00,394.65 207.32,394.00 206.50,394.00 C204.99,394.00 204.44,396.11 205.64,397.31 C206.57,398.24 208.00,397.11 208.00,395.44 ZM 337.98 261.25 C338.01,259.46 336.33,259.70 335.60,261.59 C334.77,263.76 336.00,265.61 337.11,263.86 C337.58,263.11 337.98,261.94 337.98,261.25 ZM 411.55 416.91 C411.92,416.31 411.77,415.37 411.21,414.81 C410.51,414.11 409.82,414.46 409.06,415.89 C408.15,417.59 408.21,418.00 409.41,418.00 C410.22,418.00 411.18,417.51 411.55,416.91 ZM 143.00 429.00 C143.00,427.73 139.97,427.73 138.00,429.00 C136.86,429.74 137.28,429.97 139.75,429.98 C141.54,429.99 143.00,429.55 143.00,429.00 ZM 194.63 411.30 C194.34,411.00 192.86,411.07 191.35,411.45 C189.29,411.97 188.95,412.35 190.00,413.00 C191.41,413.87 195.65,412.32 194.63,411.30 ZM 364.50 363.17 C363.41,362.08 361.76,364.92 362.47,366.68 C363.13,368.32 363.29,368.26 364.12,366.10 C364.63,364.79 364.80,363.47 364.50,363.17 ZM 491.00 368.11 C491.00,367.09 487.95,365.71 487.26,366.41 C487.01,366.66 487.10,367.35 487.46,367.93 C488.26,369.22 491.00,369.36 491.00,368.11 ZM 419.00 402.11 C419.00,401.09 415.95,399.71 415.26,400.41 C415.01,400.66 415.10,401.35 415.46,401.93 C416.26,403.22 419.00,403.36 419.00,402.11 ZM 304.29 571.00 C304.00,569.90 303.37,569.00 302.88,569.00 C302.40,569.00 302.00,569.90 302.00,571.00 C302.00,572.10 302.63,573.00 303.41,573.00 C304.32,573.00 304.63,572.30 304.29,571.00 ZM 553.22 357.82 C551.69,356.29 550.76,357.22 551.61,359.42 C552.07,360.64 552.58,360.82 553.33,360.07 C554.09,359.31 554.06,358.66 553.22,357.82 ZM 333.00 300.88 C333.00,299.78 332.55,299.16 332.00,299.50 C331.45,299.84 331.00,301.02 331.00,302.12 C331.00,303.22 331.45,303.84 332.00,303.50 C332.55,303.16 333.00,301.98 333.00,300.88 ZM 504.00 514.94 C504.00,514.42 503.33,514.00 502.50,514.00 C500.95,514.00 500.51,515.18 501.64,516.31 C502.44,517.11 504.00,516.20 504.00,514.94 ZM 356.00 321.50 C356.00,320.67 356.66,320.00 357.47,320.00 C358.36,320.00 358.71,320.59 358.36,321.50 C358.05,322.33 357.38,323.00 356.89,323.00 C356.40,323.00 356.00,322.33 356.00,321.50 ZM 138.50 359.00 C138.16,358.45 137.21,358.00 136.38,358.00 C135.56,358.00 135.16,358.45 135.50,359.00 C135.84,359.55 136.79,360.00 137.62,360.00 C138.44,360.00 138.84,359.55 138.50,359.00 ZM 588.00 441.50 C588.00,440.67 587.55,440.00 587.00,440.00 C586.45,440.00 586.00,440.67 586.00,441.50 C586.00,442.33 586.45,443.00 587.00,443.00 C587.55,443.00 588.00,442.33 588.00,441.50 ZM 271.00 403.00 C271.00,402.45 270.33,402.00 269.50,402.00 C268.67,402.00 268.00,402.45 268.00,403.00 C268.00,403.55 268.67,404.00 269.50,404.00 C270.33,404.00 271.00,403.55 271.00,403.00 ZM 414.00 427.00 C414.00,426.45 413.33,426.00 412.50,426.00 C411.67,426.00 411.00,426.45 411.00,427.00 C411.00,427.55 411.67,428.00 412.50,428.00 C413.33,428.00 414.00,427.55 414.00,427.00 ZM 143.20 441.80 C142.56,441.16 141.70,440.97 141.30,441.37 C140.89,441.78 141.21,442.51 142.00,443.00 C143.87,444.15 144.71,443.31 143.20,441.80 ZM 103.00 370.00 C103.00,369.45 102.55,369.00 102.00,369.00 C101.45,369.00 101.00,369.45 101.00,370.00 C101.00,370.55 101.45,371.00 102.00,371.00 C102.55,371.00 103.00,370.55 103.00,370.00 ZM 375.00 479.00 C375.00,478.45 374.55,478.00 374.00,478.00 C373.45,478.00 373.00,478.45 373.00,479.00 C373.00,479.55 373.45,480.00 374.00,480.00 C374.55,480.00 375.00,479.55 375.00,479.00 Z" fill="rgb(189,165,114)"/>
</g>
</svg>
